<?xml version="1.0" encoding="utf-8"?>
<!-- Generator: Adobe Illustrator 21.0.0, SVG Export Plug-In . SVG Version: 6.00 Build 0)  -->
<svg version="1.1" id="Layer_1" xmlns="http://www.w3.org/2000/svg" xmlns:xlink="http://www.w3.org/1999/xlink" x="0px" y="0px"
	 viewBox="0 0 255.30154 138.13347" enable-background="new 0 0 255.30154 138.13347" xml:space="preserve">
<g>
	<polygon fill="#83005E" points="241.37163,112.16425 255.30154,76.65269 218.83801,65.42676 215.97954,27.38317 
		178.25386,33.03113 159.16885,0 127.65062,21.51327 96.13239,0 77.04798,33.03082 39.32261,27.38256 36.46368,65.42606 0,76.65192 
		13.92961,112.16433 127.65062,138.13347 	"/>
	<linearGradient id="SVGID_1_" gradientUnits="userSpaceOnUse" x1="127.65062" y1="107.39307" x2="255.30154" y2="107.39307">
		<stop  offset="0" style="stop-color:#1A1A1A"/>
		<stop  offset="1" style="stop-color:#1A1A1A;stop-opacity:0"/>
	</linearGradient>
	<polygon fill="url(#SVGID_1_)" points="127.65062,138.13347 255.30154,76.65269 241.37163,112.16425 	"/>
	<linearGradient id="SVGID_2_" gradientUnits="userSpaceOnUse" x1="127.65062" y1="82.75832" x2="218.83801" y2="82.75832">
		<stop  offset="0" style="stop-color:#1A1A1A"/>
		<stop  offset="1" style="stop-color:#1A1A1A;stop-opacity:0"/>
	</linearGradient>
	<polygon fill="url(#SVGID_2_)" points="215.97954,27.38317 218.83801,65.42676 127.65062,138.13347 	"/>
	<linearGradient id="SVGID_3_" gradientUnits="userSpaceOnUse" x1="127.65062" y1="69.06673" x2="178.25386" y2="69.06673">
		<stop  offset="0" style="stop-color:#1A1A1A"/>
		<stop  offset="1" style="stop-color:#1A1A1A;stop-opacity:0"/>
	</linearGradient>
	<polygon fill="url(#SVGID_3_)" points="159.16885,0 178.25386,33.03113 127.65062,138.13347 	"/>
	<linearGradient id="SVGID_4_" gradientUnits="userSpaceOnUse" x1="149.08289" y1="115.27422" x2="63.91181" y2="9.45561">
		<stop  offset="0" style="stop-color:#1A1A1A"/>
		<stop  offset="1" style="stop-color:#1A1A1A;stop-opacity:0"/>
	</linearGradient>
	<polygon fill="url(#SVGID_4_)" points="96.13239,0 127.65062,138.13347 77.04798,33.03082 	"/>
	<linearGradient id="SVGID_5_" gradientUnits="userSpaceOnUse" x1="115.24572" y1="142.50902" x2="30.07463" y2="36.69041">
		<stop  offset="0" style="stop-color:#1A1A1A"/>
		<stop  offset="1" style="stop-color:#1A1A1A;stop-opacity:0"/>
	</linearGradient>
	<polygon fill="url(#SVGID_5_)" points="39.32261,27.38256 127.65062,138.13347 36.46368,65.42606 	"/>
	<linearGradient id="SVGID_6_" gradientUnits="userSpaceOnUse" x1="96.74693" y1="157.39828" x2="11.57586" y2="51.57967">
		<stop  offset="0" style="stop-color:#1A1A1A"/>
		<stop  offset="1" style="stop-color:#1A1A1A;stop-opacity:0"/>
	</linearGradient>
	<polygon fill="url(#SVGID_6_)" points="0,76.65192 127.65062,138.13347 13.92961,112.16433 	"/>
	<linearGradient id="SVGID_7_" gradientUnits="userSpaceOnUse" x1="129.23582" y1="142.49596" x2="236.34491" y2="71.52006">
		<stop  offset="0" style="stop-color:#FF92FF;stop-opacity:0.4"/>
		<stop  offset="0.61873" style="stop-color:#FF8CFF;stop-opacity:0"/>
	</linearGradient>
	<polygon fill="url(#SVGID_7_)" points="218.83801,65.42676 255.30154,76.65269 127.65062,138.13347 	"/>
	<linearGradient id="SVGID_8_" gradientUnits="userSpaceOnUse" x1="110.30177" y1="113.84467" x2="213.166" y2="45.68161">
		<stop  offset="0" style="stop-color:#FF92FF;stop-opacity:0.4"/>
		<stop  offset="0.61873" style="stop-color:#FF8CFF;stop-opacity:0"/>
	</linearGradient>
	<polygon fill="url(#SVGID_8_)" points="215.97954,27.38317 127.65062,138.13347 178.25386,33.03113 	"/>
	<linearGradient id="SVGID_9_" gradientUnits="userSpaceOnUse" x1="99.99368" y1="97.83641" x2="178.26402" y2="45.97052">
		<stop  offset="0" style="stop-color:#FF92FF;stop-opacity:0.4"/>
		<stop  offset="0.61873" style="stop-color:#FF8CFF;stop-opacity:0"/>
	</linearGradient>
	<polygon fill="url(#SVGID_9_)" points="159.16885,0 127.65062,138.13347 127.65062,21.51327 	"/>
	<linearGradient id="SVGID_10_" gradientUnits="userSpaceOnUse" x1="111.8915" y1="68.35737" x2="111.8915" y2="-16.81371">
		<stop  offset="0" style="stop-color:#FF92FF;stop-opacity:0.4"/>
		<stop  offset="0.61873" style="stop-color:#FF8CFF;stop-opacity:0"/>
	</linearGradient>
	<polygon fill="url(#SVGID_10_)" points="96.13239,0 127.65062,21.51327 127.65062,138.13347 	"/>
	<linearGradient id="SVGID_11_" gradientUnits="userSpaceOnUse" x1="130.78825" y1="129.31549" x2="49.48859" y2="18.33499">
		<stop  offset="0" style="stop-color:#FF92FF;stop-opacity:0.4"/>
		<stop  offset="0.61873" style="stop-color:#FF8CFF;stop-opacity:0"/>
	</linearGradient>
	<polygon fill="url(#SVGID_11_)" points="77.04798,33.03082 127.65062,138.13347 39.32261,27.38256 	"/>
	<linearGradient id="SVGID_12_" gradientUnits="userSpaceOnUse" x1="97.66196" y1="153.58241" x2="16.3623" y2="42.60192">
		<stop  offset="0" style="stop-color:#FF92FF;stop-opacity:0.4"/>
		<stop  offset="0.61873" style="stop-color:#FF8CFF;stop-opacity:0"/>
	</linearGradient>
	<polygon fill="url(#SVGID_12_)" points="0,76.65192 36.46368,65.42606 127.65062,138.13347 	"/>
	<radialGradient id="SVGID_13_" cx="124.97891" cy="138.0428" r="144.5385" gradientUnits="userSpaceOnUse">
		<stop  offset="0" style="stop-color:#FF8CFF;stop-opacity:0"/>
		<stop  offset="0.61388" style="stop-color:#FF92FF"/>
		<stop  offset="0.91108" style="stop-color:#FF8CFF;stop-opacity:0"/>
	</radialGradient>
	<polygon fill="url(#SVGID_13_)" points="13.92961,112.16433 39.32261,95.59123 36.46368,65.42606 63.82531,58.1055 
		77.04798,33.03082 102.3493,33.03082 127.65062,21.51327 150.79796,36.68669 178.25386,33.03113 191.47607,58.10658 
		218.83801,65.42676 217.59601,94.81288 241.37163,112.16425 255.30154,76.65269 218.83801,65.42676 215.97954,27.38317 
		178.25386,33.03113 159.16885,0 127.65062,21.51327 96.13239,0 77.04798,33.03082 39.32261,27.38256 36.46368,65.42606 0,76.65192 
			"/>
	<polygon opacity="0.36" fill="#FFFFFF" points="215.97954,27.38317 191.47607,58.10658 178.25386,33.03113 	"/>
	<polygon opacity="0.36" fill="#FFFFFF" points="217.59601,94.81288 218.83801,65.42676 255.30154,76.65269 	"/>
	<polygon opacity="0.36" fill="#FFFFFF" points="0,76.65192 36.46368,65.42606 39.32261,95.59123 	"/>
	<polygon opacity="0.36" fill="#FFFFFF" points="39.32261,27.38256 63.82531,58.1055 77.04798,33.03082 	"/>
	<polygon opacity="0.36" fill="#FFFFFF" points="102.3493,33.03082 127.65062,21.51327 96.13239,0 	"/>
	<polygon opacity="0.36" fill="#FFFFFF" points="150.79796,36.68669 159.16885,0 178.25386,33.03113 	"/>
</g>
</svg>
