<?xml version="1.0" encoding="utf-8"?>
<!-- Generator: Adobe Illustrator 21.0.0, SVG Export Plug-In . SVG Version: 6.00 Build 0)  -->
<svg version="1.1" id="Layer_1" xmlns="http://www.w3.org/2000/svg" xmlns:xlink="http://www.w3.org/1999/xlink" x="0px" y="0px"
	 viewBox="0 0 251.17862 269.73148" enable-background="new 0 0 251.17862 269.73148" xml:space="preserve">
<g>
	<polygon fill="#999999" points="174.88997,0 232.03282,39.73604 174.88997,62.18502 118.76752,25.00002 	"/>
	<polygon fill="#808080" points="232.03282,39.73604 211.62466,162.18501 151.42058,181.57277 174.88997,62.18502 	"/>
	<polygon fill="#4D4D4D" points="118.76752,25.00002 174.88997,62.18502 151.42058,181.57277 103.4614,139.73604 	"/>
	<path fill="#CCCCCC" d="M174.88997,0c0,0,31.63264,38.2277-23.46939,46.63493l23.46939,15.55009l57.14285-22.44898L174.88997,0z"/>
	<path fill="#B3B3B3" d="M168.43918,94.99988c0,0,47.14519-33.1037,47.71635,39.99991l15.87729-95.26375l-57.14285,22.44898
		L168.43918,94.99988z"/>
	<path fill="#333333" d="M113.11788,67.35014c0,0,16.81753,106.79093,47.45808,67.64965l-9.15538,46.57298l-47.95918-41.83673
		L113.11788,67.35014z"/>
	<polygon fill="#999999" points="56.52262,25.00002 0,67.35014 53.46139,94.99988 103.4614,55.00002 	"/>
	<polygon fill="#808080" points="103.4614,55.00002 108.56343,169.43529 68.76752,201.93524 53.46139,94.99988 	"/>
	<polygon fill="#4D4D4D" points="0,67.35014 53.46139,94.99988 68.76752,201.93524 18.76752,169.43529 	"/>
	<path fill="#333333" d="M3.6801,87.36791c0,0,14.00971,41.09971,30.70366,47.63187
		c12.90956,5.05136,28.61102,26.60451,29.7319,34.4355l4.65186,32.49995l-50-32.49995L3.6801,87.36791z"/>
	<path fill="#B3B3B3" d="M53.46139,94.99988l50-39.99986v26.57276c0,0-48.5825,16.23868-45.20962,46.89484L53.46139,94.99988z"/>
	<path fill="#CCCCCC" d="M78.4614,39.73604c0,0-22.73911,37.88125-78.4614,27.61409l53.46139,27.64974l50-39.99986L78.4614,39.73604
		z"/>
	<polygon fill="#999999" points="186.23016,106.63895 251.17862,167.60666 172.82811,201.0743 105.16831,134.67992 	"/>
	<polygon fill="#808080" points="251.17862,167.60666 224.3745,237.77271 159.8075,269.73148 172.82811,201.0743 	"/>
	<polygon fill="#4D4D4D" points="105.16831,134.67992 172.82811,201.0743 159.8075,269.73148 98.6013,211.99951 	"/>
	<path fill="#B3B3B3" d="M251.17862,167.60666l-19.50633,51.06239c0,0-47.50397,28.18108-58.84418-17.59476L251.17862,167.60666z"/>
	<path fill="#CCCCCC" d="M150.72047,118.92249c0,0,30.35506,71.30162,100.45815,48.68417l-78.35051,33.46764l-67.6598-66.39438
		L150.72047,118.92249z"/>
	<path fill="#333333" d="M98.6013,211.99951l61.20619,57.73196l9.68382-51.06242c0,0-64.29118,2.33287-69.65245-21.24049
		L98.6013,211.99951z"/>
</g>
</svg>
