<?xml version="1.0" encoding="utf-8"?>
<!-- Generator: Adobe Illustrator 21.0.0, SVG Export Plug-In . SVG Version: 6.00 Build 0)  -->
<svg version="1.1" id="Layer_1" xmlns="http://www.w3.org/2000/svg" xmlns:xlink="http://www.w3.org/1999/xlink" x="0px" y="0px"
	 viewBox="0 0 184.07449 163.30864" enable-background="new 0 0 184.07449 163.30864" xml:space="preserve">
<g>
	<g>
		<path fill="#FFFFFF" d="M85.67258,1.18305c-5.76526-0.05536-5.70852-2.22472-11.16393-0.35931
			c-5.45556,1.86546-4.58138,4.422-10.03694,6.28746c-5.45621,1.86568-6.07935,0.0433-11.53556,1.90898
			c-5.45472,1.86517-5.5092,1.70584-10.96392,3.57101c-5.45661,1.86582-4.20683,5.52082-9.66344,7.38664
			c-5.45488,1.86523-5.66092,1.26267-11.1158,3.1279c-5.45863,1.86651-5.7508,1.01205-11.20944,2.87856
			c-5.45863,1.86651-9.53973-3.84308-9.96062,1.91047c-0.41857,5.72182,4.97166-0.48396,10.10657,2.07479
			c5.13543,2.55901,4.17792,4.48054,9.31335,7.03955c5.13557,2.55908,3.74183,5.35604,8.8774,7.91512
			c5.13391,2.55825,6.00847,0.80316,11.14238,3.36141c5.13523,2.55891,5.41885,1.98975,10.55408,4.54866
			c5.13702,2.5598,5.16788,2.49786,10.3049,5.05766c5.13539,2.55899,5.38391,2.06024,10.5193,4.61923
			c5.13892,2.56075,5.48527,1.8657,10.62419,4.42644c5.13892,2.56075,3.61318,7.91227,9.35211,8.087
			c5.58971,0.17019,5.33465-3.02216,10.45506-5.27054c5.12093-2.2486,4.25732-4.21537,9.37825-6.46398
			c5.12106-2.24867,5.60013-1.15765,10.7212-3.40633c5.11941-2.24794,4.63119-3.35981,9.75059-5.60775
			c5.12074-2.24852,7.10988,2.28148,12.23061,0.03296c5.12251-2.2493,2.60246-7.98839,7.72498-10.23769
			c5.1209-2.24859,6.74579,1.4519,11.86667-0.79669c5.1244-2.25014,4.62468-3.38821,9.74908-5.63835
			s11.73903,1.24413,11.36574-4.34007c-0.38376-5.74078-6.57187-1.49193-11.97827-3.46032
			c-5.40697-1.96859-6.16766,0.12077-11.57463-1.84781c-5.4071-1.96864-4.11482-5.51805-9.52193-7.48669
			c-5.40775-1.96887-4.82365-3.57317-10.2314-5.54205c-5.40627-1.96834-5.86591-0.70591-11.27217-2.67425
			c-5.40815-1.96902-5.66804-1.2552-11.07619-3.22422c-5.40644-1.9684-4.99316-3.10352-10.3996-5.07192
			c-5.41015-1.96975-5.56162-1.87937-11.09598-3.46698C91.67936-0.97832,91.42989,1.23833,85.67258,1.18305z"/>
	</g>
	<g>
		
			<radialGradient id="SVGID_1_" cx="175.43692" cy="153.10921" r="115.05428" gradientTransform="matrix(0.99836 0.05721 -0.05721 0.99836 -4.16384 -16.18858)" gradientUnits="userSpaceOnUse">
			<stop  offset="0.19028" style="stop-color:#B3B39F"/>
			<stop  offset="0.75487" style="stop-color:#F2E9DB"/>
		</radialGradient>
		<path fill="url(#SVGID_1_)" d="M177.81812,31.29177c4.5575,3.63923-0.52104,4.21981-1.1346,10.12715
			c-0.61359,5.90749,0.88751,6.06731,0.27393,11.97481c-0.61365,5.9082-1.00452,5.86659-1.61818,11.77479
			c-0.61348,5.90659-1.45892,5.81657-2.07242,11.72315c-0.61369,5.90864,1.99959,6.18687,1.38588,12.09551
			c-0.61372,5.90893-4.97409,5.44469-5.58781,11.35361c-0.61382,5.90974,3.4001,6.3371,2.78629,12.24684
			c-0.61382,5.90974,2.77676,8.37334-0.63535,13.18134c-3.40919,4.8039-7.87314-0.4075-13.16212,2.00037
			c-5.28912,2.40794-4.14369,5.07832-9.43282,7.48625c-5.28741,2.40717-6.26605,0.12567-11.55347,2.53282
			c-5.28879,2.40779-4.49057,4.26866-9.77936,6.67644c-5.29062,2.40863-6.32616-0.00554-11.61678,2.40309
			c-5.28894,2.40785-4.99623,3.09026-10.28517,5.49812c-5.29258,2.4095-5.23396,2.54617-10.52654,4.95569
			s-5.17452,8.22169-10.06905,5.07431c-4.70977-3.02858,1.31264-5.28838,1.46574-11.00279
			c0.15311-5.71455-1.93346-5.76692-1.78036-11.48148c0.15312-5.71526,0.94936-5.69527,1.10248-11.41052
			c0.15308-5.71368,1.16606-5.68826,1.31914-11.40195c0.15313-5.71567,0.96611-5.69527,1.11924-11.41093
			c0.15308-5.71386-2.97256-5.79229-2.81949-11.50615c0.15319-5.71778,2.32727-5.66322,2.48046-11.38101
			c0.15318-5.71778-3.72948-6.66731-0.61522-11.41817c3.11986-4.75938,4.88194-2.74646,9.9922-5.05812
			c5.11078-2.3119,4.9381-2.71707,10.04887-5.02897c5.11092-2.31196,6.42483,0.77103,11.53574-1.54093
			c5.10926-2.31121,5.01292-2.53727,10.12217-4.84848c5.11058-2.31181,4.53615-3.65966,9.64673-5.97147
			c5.11237-2.31261,4.76324-3.13177,9.87561-5.44437c5.11073-2.31188,5.82835-0.62802,10.9391-2.9399
			c5.11424-2.31347,3.88007-4.4481,8.38824-7.84356C171.91838,29.46322,173.41774,27.77799,177.81812,31.29177z"/>
	</g>
	<g>
		<path fill="#CCCCBF" d="M5.4524,27.75767c4.76084-2.72558,5.3075,0.34048,10.15349,2.84859
			c4.84649,2.50836,3.12159,6.10287,7.96808,8.61123c4.84662,2.50843,5.43867,1.27466,10.28529,3.78309
			c4.84505,2.50762,4.22956,3.79024,9.07461,6.29786c4.8463,2.50827,6.89329-1.75744,11.73959,0.75083
			c4.84798,2.50914,2.77608,6.82677,7.62407,9.33591c4.84645,2.50834,6.06064-0.02191,10.90709,2.48643
			c4.84978,2.51006,5.6594,0.8229,10.50919,3.33297c4.84978,2.51006,5.09914,2.80817,7.92552,7.62054
			c2.74635,4.67609-0.94973,4.96713-1.0993,10.4599c-0.14958,5.49293,0.41479,5.50682,0.26521,10.99974
			c-0.1496,5.49358,2.28331,5.55348,2.13371,11.04706c-0.14956,5.49207-1.52459,5.45822-1.67415,10.95029
			c-0.1496,5.49398-0.47082,5.48607-0.62042,10.98006c-0.14956,5.49224,2.46357,5.55659,2.31401,11.04882
			c-0.14967,5.49602-2.13131,5.44722-2.28098,10.94324s3.90879,8.23232-0.71801,10.89491
			c-4.62244,2.6601-5.27972-1.31514-9.79308-4.1277c-4.51382-2.81285-3.7771-4.09062-8.29092-6.90346
			c-4.51395-2.81293-4.75223-2.39966-9.26617-5.21259c-4.51249-2.81201-4.34376-3.10464-8.85624-5.91666
			c-4.51365-2.81274-3.15292-5.17279-7.66657-7.98552c-4.51522-2.81372-4.80989-2.30264-9.32512-5.11636
			c-4.51379-2.81282-4.19506-3.36563-8.70885-6.17845c-4.51689-2.81476-4.68005-2.53178-9.19694-5.34653
			s-7.57208,1.05138-10.34657-3.60929c-2.60291-4.37245-2.00788-5.19827-2.23254-10.34851
			c-0.22467-5.15038,2.55841-5.29604,2.33374-10.44641c-0.22459-5.14871-1.04508-5.10577-1.26967-10.25448
			c-0.22465-5.15004,1.48789-5.23967,1.26324-10.38971c-0.22473-5.15183-2.37851-5.03911-2.60324-10.19094
			c-0.22466-5.1502,2.15521-5.27475,1.93055-10.42495c-0.22481-5.15374-2.66175-4.7287-4.05517-9.67337
			C2.40389,32.8009,1.10427,30.24697,5.4524,27.75767z"/>
	</g>
	<g opacity="0.57">
		
			<radialGradient id="SVGID_2_" cx="-4.15948" cy="92.8015" r="107.73256" gradientTransform="matrix(0.99836 0.05721 -0.05721 0.99836 -4.16384 -16.18858)" gradientUnits="userSpaceOnUse">
			<stop  offset="0" style="stop-color:#FFFFFF"/>
			<stop  offset="0.54329" style="stop-color:#FFFF00"/>
			<stop  offset="0.81122" style="stop-color:#EBEBD5"/>
		</radialGradient>
		<path fill="url(#SVGID_2_)" d="M5.2492,31.94234c3.76345-2.54856,3.75118,4.55429,7.81928,6.58145
			c4.07089,2.02854,5.88451-1.61105,9.95541,0.4175c4.07089,2.02855,3.13353,3.41016,6.01079,6.93274
			c3.56631,4.36617,2.47524,4.19071,2.4359,10.29678c-0.02382,3.69693-0.93879,7.57536-0.259,11.05439
			c0.91053,4.65987,1.68382,10.1119,4.99316,10.49323c2.65998,0.3065,5.82136-0.11919,8.87056,1.54826
			c2.60928,1.42687,4.85222,3.65514,7.26143,5.72315c2.41608,2.07391,5.68132,3.4152,7.44564,5.80377
			c2.042,2.76451,0.55624,6.5306,1.0732,9.2389c0.49368,2.58634,5.8977,4.15524,7.90672,7.27386
			c1.66741,2.58834,0.6654,7.55085,2.86142,9.97953c2.27126,2.51189,5.4929,4.32896,7.82112,6.15063
			c3.30903,2.58909,4.96275,3.82235,7.12244,3.72555c0.94501,4.78081,3.45627,4.49948,3.32983,9.37115
			c-0.12653,4.875-1.04754,4.8511-1.17406,9.72612s4.12814,9.80238-0.67538,10.64378
			c-7.19531,1.26036-7.2505-3.52014-12.99128-8.03728c-3.93871-3.0992-2.35514-3.79239-5.13718-8.82552
			c-1.48062-2.67865-4.09933-5.09514-5.93695-8.05515c-1.82972-2.94727-3.58936-5.71812-5.47683-8.15794
			c-2.69811-3.48771-3.79672-7.31421-5.87922-7.81726c-2.20584-0.53285-5.60527-2.05683-8.93302-4.77593
			c-2.44135-1.99483-5.36881-4.10851-7.80934-6.61698c-2.45076-2.519-4.79056-5.26286-6.72334-7.73275
			c-2.73834-3.49932-4.88055-6.99551-5.32215-9.01789c-0.5138-2.35301-1.04706-6.49428-2.97062-10.65221
			c-1.54594-3.34169-5.06261-5.70925-7.059-8.62518c-2.70756-3.95467-3.41182-8.16962-6.05932-8.26761
			c-1.45369-4.40001,0.72727-4.49702,0.50561-9.12564c-0.22182-4.63181,0.08535-4.98939-1.3079-9.41225
			C5.28518,36.50769,1.40963,34.54245,5.2492,31.94234z"/>
	</g>
	<g opacity="0.57">
		
			<radialGradient id="SVGID_3_" cx="125.8131" cy="68.42484" r="92.17854" gradientTransform="matrix(0.99836 0.05721 -0.05721 0.99836 -4.16384 -16.18858)" gradientUnits="userSpaceOnUse">
			<stop  offset="0" style="stop-color:#FFFFFF"/>
			<stop  offset="0.54329" style="stop-color:#FFFF00"/>
			<stop  offset="0.81122" style="stop-color:#EBEBD5"/>
		</radialGradient>
		<path fill="url(#SVGID_3_)" d="M138.00891,55.93502c-3.05318,3.71041,4.96404,1.30703,8.45822,5.78658
			c1.65324,2.11946,1.74252,5.62047,2.72554,9.27551c0.72316,2.68882,2.48454,5.61752,2.40681,9.2981
			c-0.06836,3.2375-2.33153,5.85789-3.80417,8.82957c-1.36095,2.74628-1.95644,6.13123-3.99051,8.82415
			c-1.88307,2.493-3.17299,5.62325-5.21584,8.20818c-1.98003,2.50544-3.61325,5.13378-5.37242,7.84799
			c-1.74825,2.69736-6.52112,3.89301-7.69171,6.91521c-1.13437,2.92867-1.30443,6.62479-1.56499,9.96786
			c-0.2339,3.00107,1.08234,6.23813,1.80199,9.65544c5.15989-0.388,4.84014-1.81471,9.57302-3.90633
			c4.73137-2.09096,4.33681-2.98375,9.06819-5.07471c4.73462-2.09239,4.71149-2.14474,9.44611-4.23713
			c4.73462-2.09239,6.63719,0.63831,9.66167-3.56255c3.08479-4.28463-1.37041-5.37834-0.81831-10.62897
			c0.55211-5.25077,2.3167-5.06522,2.8688-10.316c0.55217-5.2514,2.02551-5.09647,2.5777-10.34788
			c0.55202-5.24996,0.37839-5.26822,0.9304-10.51818c0.55223-5.25179-1.18289-5.43423-0.63068-10.68602
			c0.55225-5.25204,1.4272-5.16004,1.97945-10.41209c0.55232-5.25277,0.71492-5.23567,1.26724-10.48844
			s5.33774-7.73463,1.33983-11.18622c-3.57695-3.08817-5.13806,2.03059-9.39287,4.0868
			c-4.25348,2.05556-4.50656,1.53186-8.76003,3.58743c-4.25639,2.05697-3.07379,5.0864-7.61002,6.41709
			C142.48131,54.67295,141.0127,52.28465,138.00891,55.93502z"/>
	</g>
	<g opacity="0.57">
		
			<radialGradient id="SVGID_4_" cx="133.88567" cy="125.94543" r="139.09746" gradientTransform="matrix(0.99836 0.05721 -0.05721 0.99836 -4.16384 -16.18858)" gradientUnits="userSpaceOnUse">
			<stop  offset="0" style="stop-color:#FFFFFF"/>
			<stop  offset="0.54329" style="stop-color:#FFFF00"/>
			<stop  offset="0.81122" style="stop-color:#EBEBD5"/>
		</radialGradient>
		<path fill="url(#SVGID_4_)" d="M90.01713,3.06565c3.96406-0.37664-3.52301,2.11258-6.19304,5.21674
			c-1.79354,2.08516-3.78583,4.78804-3.96066,7.23034c-0.1624,2.26855,1.27461,5.16408,4.39684,7.04296
			c2.44507,1.47138,5.90049,2.02797,8.8842,3.70374c2.71159,1.52293,4.96614,4.01185,7.58656,5.83927
			c2.66942,1.86158,5.81906,3.15141,7.85924,5.4643c2.14666,2.43361,3.00097,5.57294,3.83799,8.66136
			c0.7644,2.82047,0.86766,5.22215,0.03833,8.71567c-4.10988,3.06355-4.70583,1.61463-9.39934,3.67556
			c-4.69351,2.06093-3.78365,5.90031-8.90836,6.01743c-4.42543,0.10114,1.29469-4.77568,1.35184-9.62003
			c0.03302-2.79882-1.65581-5.54077-2.61134-8.36861c-0.94074-2.78402-1.26294-5.96395-3.87157-7.65761
			c-1.83902-1.19398-4.74081-2.13843-8.00543-2.94595c-2.54025-0.62834-5.37724-1.21684-8.26624-1.80698
			c-2.7588-0.56354-5.86583,0.06728-8.54137-0.61417c-2.91934-0.74355-5.79735-1.71251-8.12954-2.78218
			c-2.97451-1.36428-4.68851-3.9341-5.76541-6.18763c-1.0281-2.15139-0.60878-3.78263,1.03381-7.10272
			c3.50443-2.21691,3.76176-1.04482,7.68549-2.38649c3.92509-1.34213,3.58932-2.3241,7.51441-3.66623
			c3.92384-1.34171,3.78823-1.7383,7.71207-3.08001c3.92654-1.34263,4.52265,0.08039,8.31551-1.60323
			C86.42377,5.10548,85.88599,3.45817,90.01713,3.06565z"/>
	</g>
</g>
</svg>
