<?xml version="1.0" encoding="utf-8"?>
<!-- Generator: Adobe Illustrator 21.0.0, SVG Export Plug-In . SVG Version: 6.00 Build 0)  -->
<svg version="1.1" id="Layer_1" xmlns="http://www.w3.org/2000/svg" xmlns:xlink="http://www.w3.org/1999/xlink" x="0px" y="0px"
	 viewBox="0 0 208.2594 177.41586" enable-background="new 0 0 208.2594 177.41586" xml:space="preserve">
<g>
	<g>
		<linearGradient id="SVGID_1_" gradientUnits="userSpaceOnUse" x1="103.14175" y1="9.16104" x2="134.91026" y2="209.75653">
			<stop  offset="0.16961" style="stop-color:#00BA00"/>
			<stop  offset="0.4881" style="stop-color:#9BDA88"/>
			<stop  offset="1" style="stop-color:#008700"/>
		</linearGradient>
		<polygon fill="url(#SVGID_1_)" points="106.73432,0 141.31357,38.12222 124.02394,154.04935 106.73432,170.64232 
			93.04007,157.44281 79.01382,34.40107 		"/>
		<linearGradient id="SVGID_2_" gradientUnits="userSpaceOnUse" x1="20.30489" y1="22.28" x2="52.0734" y2="222.87549">
			<stop  offset="0.16961" style="stop-color:#00BA00"/>
			<stop  offset="0.4881" style="stop-color:#9BDA88"/>
			<stop  offset="1" style="stop-color:#008700"/>
		</linearGradient>
		<polygon fill="url(#SVGID_2_)" points="71.35983,164.2886 39.86083,87.25672 0,72.90141 4.03399,99.90778 53.60849,164.2886 
			66.84347,174.27299 		"/>
		<linearGradient id="SVGID_3_" gradientUnits="userSpaceOnUse" x1="150.57298" y1="1.64931" x2="182.34149" y2="202.2448">
			<stop  offset="0.16961" style="stop-color:#00BA00"/>
			<stop  offset="0.4881" style="stop-color:#9BDA88"/>
			<stop  offset="1" style="stop-color:#008700"/>
		</linearGradient>
		<polygon fill="url(#SVGID_3_)" points="134.29434,161.70175 178.9232,89.4581 208.2594,78.42316 208.2594,103.23056 
			152.96355,166.10396 132.88164,177.41586 		"/>
		<polygon fill="#007500" points="208.2594,103.23056 190.15863,99.90778 143.08908,162.47327 132.88164,177.41586 
			152.96355,166.10396 		"/>
		<polygon opacity="0.5" fill="#FFFFFF" points="178.9232,89.4581 190.15863,99.90778 208.2594,78.42316 		"/>
		<polygon fill="#007500" points="79.01382,34.40107 110.1637,48.10661 106.73432,170.64232 93.04007,157.44281 		"/>
		<polygon fill="#007500" points="4.03399,99.90778 24.09056,102.52169 66.84347,174.27299 53.60849,164.2886 		"/>
		<polygon opacity="0.5" fill="#FFFFFF" points="24.09056,102.52169 0,72.90141 39.86083,87.25672 		"/>
		<polygon opacity="0.5" fill="#FFFFFF" points="110.1637,48.10661 106.73432,0 141.31357,38.12222 		"/>
	</g>
	<g>
		<linearGradient id="SVGID_4_" gradientUnits="userSpaceOnUse" x1="146.79515" y1="41.86399" x2="147.77762" y2="163.68929">
			<stop  offset="0.26761" style="stop-color:#F15A24"/>
			<stop  offset="0.40128" style="stop-color:#B3B39F"/>
			<stop  offset="0.75487" style="stop-color:#5C2400"/>
		</linearGradient>
		<polygon fill="url(#SVGID_4_)" points="143.67215,42.15162 142.97563,45.49384 151.62289,47.993 155.79236,53.49644 
			155.12006,62.24854 165.77176,63.40512 169.3094,69.33028 165.13969,80.43377 172.66704,83.69502 173.69295,89.08559 
			174.99927,96.47255 171.3015,102.82144 163.44745,106.60652 158.65926,112.28555 161.48328,122.66719 156.61971,128.30203 
			148.82388,132.12076 140.79591,135.8036 142.29544,145.37804 137.97475,151.48598 136.8904,157.49933 134.29434,161.70175 
			133.69292,168.39162 124.27057,163.72762 122.06068,156.49449 119.91632,151.59158 122.50416,147.63048 129.18889,144.13292 
			130.00467,136.23256 134.35129,129.70091 125.31304,121.1741 124.46124,113.86808 129.16339,107.38957 133.21513,100.81294 
			137.39279,94.2599 141.21176,87.65024 141.93867,80.57944 132.35384,71.9706 139.4252,65.84405 134.34158,57.90857 
			136.75729,51.08531 144.53889,45.69486 		"/>
		<linearGradient id="SVGID_5_" gradientUnits="userSpaceOnUse" x1="67.72572" y1="40.48658" x2="68.72714" y2="164.66231">
			<stop  offset="0.26761" style="stop-color:#F15A24"/>
			<stop  offset="0.40128" style="stop-color:#B3B39F"/>
			<stop  offset="0.75487" style="stop-color:#5C2400"/>
		</linearGradient>
		<polygon fill="url(#SVGID_5_)" points="77.72481,38.35316 77.23466,43.06456 69.79585,45.6786 68.93005,54.23063 
			56.15612,52.02511 51.2255,56.90759 50.74473,65.80498 49.61134,74.1209 43.96087,78.36256 42.36784,82.50879 44.56858,86.0932 
			44.03369,93.61155 38.28217,102.96202 44.9383,107.94289 51.5051,112.95842 49.7463,120.90841 54.92751,126.41243 
			54.67684,133.83289 61.59033,138.72426 57.86809,147.3707 61.00926,153.60309 64.81206,159.30432 70.8666,154.13062 
			78.50384,157.52295 85.4388,156.27251 92.75025,157.45721 98.58736,153.85451 97.76559,148.19215 95.7409,144.92773 
			92.24945,139.63177 92.39719,132.5497 92.87633,125.42874 83.03255,119.48563 88.27571,111.82252 80.73203,105.61625 
			86.64066,97.87537 79.12571,91.66945 79.89981,84.51556 85.71913,76.78654 81.14555,70.24214 83.35009,62.92324 80.24628,56.2133 
			84.92747,48.60976 78.64677,42.38008 		"/>
		<polygon opacity="0.39" points="82.49297,67.46494 60.74565,69.55997 56.25124,85.20264 41.75552,93.03606 66.9099,154.55197 
			91.53417,146.77657 		"/>
		<polygon opacity="0.39" points="135.33389,85.20264 144.92575,69.55997 148.37952,81.42865 159.59488,81.42865 
			165.13326,108.32359 143.25473,139.94456 126.72546,142.9223 		"/>
		<polygon opacity="0.63" fill="#FFFFFF" points="78.81007,35.1576 81.15467,55.725 75.60325,53.5072 75.60325,47.35135 
			71.04955,48.07557 68.20928,57.02655 72.67905,59.52651 66.64484,62.55992 62.72105,61.65465 62.72105,57.02655 
			59.17306,60.03029 57.47047,64.86125 60.91051,64.86125 60.74565,69.55997 54.93571,70.88843 53.87703,68.00282 49.61134,74.1209 
			43.96087,78.36256 		"/>
		<polygon opacity="0.63" fill="#FFFFFF" points="73.04115,77.02647 77.92963,77.02647 73.94643,81.42865 68.20928,82.11381 
			66.9099,87.90755 61.07036,89.71809 62.72105,83.37228 66.64484,81.42865 		"/>
		<polygon opacity="0.63" fill="#FFFFFF" points="57.28942,103.24419 61.78024,103.24419 57.28942,108.32359 53.12516,108.32359 		
			"/>
		<linearGradient id="SVGID_6_" gradientUnits="userSpaceOnUse" x1="159.93384" y1="37.28664" x2="160.41367" y2="96.78603">
			<stop  offset="0.26761" style="stop-color:#F15A24"/>
			<stop  offset="0.40128" style="stop-color:#B3B39F"/>
			<stop  offset="0.75487" style="stop-color:#5C2400"/>
		</linearGradient>
		<polygon fill="url(#SVGID_6_)" points="142.44003,37.55589 177.86438,91.1721 173.5732,98.92105 170.12473,92.71908 
			174.04494,91.076 171.35373,85.20249 172.98322,85.20249 170.44846,81.42865 167.18947,81.42865 167.73264,83.37228 
			163.38733,83.37228 161.57678,77.02647 165.13326,77.94955 164.2926,73.60425 160.67151,73.06108 159.72774,68.23847 		"/>
		<linearGradient id="SVGID_7_" gradientUnits="userSpaceOnUse" x1="74.21424" y1="120.57964" x2="76.749" y2="79.66132">
			<stop  offset="0.26761" style="stop-color:#F15A24"/>
			<stop  offset="0.40128" style="stop-color:#B3B39F"/>
			<stop  offset="0.75487" style="stop-color:#5C2400"/>
		</linearGradient>
		<polygon fill="url(#SVGID_7_)" points="73.94643,81.42865 83.36126,108.32359 68.20928,82.11381 		"/>
		<linearGradient id="SVGID_8_" gradientUnits="userSpaceOnUse" x1="67.98225" y1="120.19358" x2="70.51701" y2="79.27527">
			<stop  offset="0.26761" style="stop-color:#F15A24"/>
			<stop  offset="0.40128" style="stop-color:#B3B39F"/>
			<stop  offset="0.75487" style="stop-color:#5C2400"/>
		</linearGradient>
		<polygon fill="url(#SVGID_8_)" points="66.9099,87.90755 77.92963,101.66769 61.07036,89.71809 		"/>
		<linearGradient id="SVGID_9_" gradientUnits="userSpaceOnUse" x1="57.78505" y1="119.5619" x2="60.31981" y2="78.64359">
			<stop  offset="0.26761" style="stop-color:#F15A24"/>
			<stop  offset="0.40128" style="stop-color:#B3B39F"/>
			<stop  offset="0.75487" style="stop-color:#5C2400"/>
		</linearGradient>
		<polygon fill="url(#SVGID_9_)" points="57.28942,108.32359 63.08316,120.49735 53.12516,108.32359 		"/>
		<polygon fill="#FFFFFF" points="142.44003,37.55589 156.72852,58.85228 152.88399,56.09203 153.61038,60.93043 
			149.58427,58.03356 147.32094,52.78298 149.58427,52.78298 149.02507,49.24316 144.0145,46.98924 145.92935,50.75499 
			142.44003,52.42087 144.37662,54.95564 139.894,54.62705 		"/>
		<polygon fill="#FFFFFF" points="144.92575,69.55997 149.44614,73.60425 147.69363,79.07167 143.47134,74.31582 		"/>
		<polygon fill="#FFFFFF" points="154.33461,81.42865 159.59488,81.42865 160.37201,85.20249 163.74944,85.20249 
			165.13326,88.81282 162.11995,88.81282 160.85257,87.18333 157.77464,86.82122 		"/>
		<polygon fill="#FFFFFF" points="165.13326,108.32359 158.49886,107.46143 162.87323,111.59 		"/>
		<polygon fill="#FFFFFF" points="152.52406,117.02637 148.31125,117.96259 150.41766,119.41103 154.33461,119.41103 		"/>
		<linearGradient id="SVGID_10_" gradientUnits="userSpaceOnUse" x1="142.51256" y1="69.3023" x2="143.59889" y2="120.54071">
			<stop  offset="0.26761" style="stop-color:#F15A24"/>
			<stop  offset="0.40128" style="stop-color:#B3B39F"/>
			<stop  offset="0.75487" style="stop-color:#5C2400"/>
		</linearGradient>
		<polygon fill="url(#SVGID_10_)" points="143.47134,74.31582 137.85866,84.39751 147.69363,79.07167 		"/>
		<linearGradient id="SVGID_11_" gradientUnits="userSpaceOnUse" x1="155.14619" y1="69.03445" x2="156.23251" y2="120.27286">
			<stop  offset="0.26761" style="stop-color:#F15A24"/>
			<stop  offset="0.40128" style="stop-color:#B3B39F"/>
			<stop  offset="0.75487" style="stop-color:#5C2400"/>
		</linearGradient>
		<polygon fill="url(#SVGID_11_)" points="157.77464,86.82122 150.35141,93.88235 160.85257,87.18333 		"/>
		<linearGradient id="SVGID_12_" gradientUnits="userSpaceOnUse" x1="161.96013" y1="68.88998" x2="163.04645" y2="120.1284">
			<stop  offset="0.26761" style="stop-color:#F15A24"/>
			<stop  offset="0.40128" style="stop-color:#B3B39F"/>
			<stop  offset="0.75487" style="stop-color:#5C2400"/>
		</linearGradient>
		<polygon fill="url(#SVGID_12_)" points="162.11995,88.81282 165.13326,88.81282 159.72774,93.33918 		"/>
		<linearGradient id="SVGID_13_" gradientUnits="userSpaceOnUse" x1="149.6982" y1="69.14995" x2="150.78453" y2="120.38837">
			<stop  offset="0.26761" style="stop-color:#F15A24"/>
			<stop  offset="0.40128" style="stop-color:#B3B39F"/>
			<stop  offset="0.75487" style="stop-color:#5C2400"/>
		</linearGradient>
		<polygon fill="url(#SVGID_13_)" points="150.41766,119.41103 147.32094,125.44524 154.33461,119.41103 		"/>
	</g>
</g>
</svg>
