<?xml version="1.0" encoding="utf-8"?>
<!-- Generator: Adobe Illustrator 21.0.0, SVG Export Plug-In . SVG Version: 6.00 Build 0)  -->
<svg version="1.1" id="Layer_1" xmlns="http://www.w3.org/2000/svg" xmlns:xlink="http://www.w3.org/1999/xlink" x="0px" y="0px"
	 viewBox="0 0 200.80428 179.17366" enable-background="new 0 0 200.80428 179.17366" xml:space="preserve">
<g>
	
		<radialGradient id="SVGID_1_" cx="86.5182" cy="239.57578" r="220.91626" gradientTransform="matrix(0.98492 0.17303 -0.17303 0.98492 31.981 -74.81242)" gradientUnits="userSpaceOnUse">
		<stop  offset="0.18217" style="stop-color:#0096E4"/>
		<stop  offset="0.37588" style="stop-color:#00D9E4"/>
		<stop  offset="0.57155" style="stop-color:#0096E4"/>
		<stop  offset="1" style="stop-color:#145274"/>
	</radialGradient>
	<polygon fill="url(#SVGID_1_)" points="152.65314,0 162.44139,44.86234 101.76376,140.04716 163.63895,68.61843 
		200.80428,62.34422 196.52434,93.81877 128.68916,151.44203 178.95428,125.19623 196.72385,129.37033 186.54108,150.64421 
		114.66253,173.6936 97.30797,165.65944 74.40281,179.17366 62.40513,158.43147 30.74978,145.19717 0,89.37245 3.36254,70.23264 
		28.82476,81.28277 51.56142,132.80423 34.58675,44.98014 51.8,7.16629 79.92081,39.03314 77.76608,127.14973 109.97885,24.90338 	
		"/>
	<polygon opacity="0.35" points="152.65314,0 131.54123,39.4337 74.40281,179.17366 162.44139,44.86234 	"/>
	<polygon opacity="0.35" points="200.80428,62.34422 196.52434,93.81877 97.30797,165.65944 	"/>
	<polygon opacity="0.35" points="34.58675,44.98014 55.3872,48.63442 62.40513,158.43147 	"/>
	<polygon opacity="0.35" points="3.36254,70.23264 19.4052,91.22437 45.01036,151.15915 30.74978,145.19717 0,89.37245 	"/>
	<polygon opacity="0.35" points="196.72385,129.37033 186.54108,150.64421 114.66253,173.6936 178.09201,142.58301 	"/>
	<polygon fill="#00FFFF" points="109.97885,24.90338 131.54123,39.4337 152.65314,0 	"/>
	<polygon fill="#00FFFF" points="163.63895,68.61843 181.06133,82.05263 200.80428,62.34422 	"/>
	<polygon fill="#00FFFF" points="178.95428,125.19623 178.09201,142.58301 196.72385,129.37033 	"/>
	<polygon fill="#00FFFF" points="55.3872,48.63442 79.92081,39.03314 51.8,7.16629 	"/>
	<polygon fill="#00FFFF" points="19.4052,91.22437 3.36254,70.23264 28.82476,81.28277 	"/>
	<polygon opacity="0.35" points="131.54123,39.4337 162.44139,44.86234 152.65314,0 	"/>
	<polygon opacity="0.35" points="109.97885,24.90338 74.40281,179.17366 77.76608,127.14973 	"/>
	<polygon opacity="0.35" points="200.80428,62.34422 196.52434,93.81877 181.06133,82.05263 	"/>
</g>
</svg>
