<?xml version="1.0" encoding="utf-8"?>
<!-- Generator: Adobe Illustrator 21.0.0, SVG Export Plug-In . SVG Version: 6.00 Build 0)  -->
<svg version="1.1" id="Layer_1" xmlns="http://www.w3.org/2000/svg" xmlns:xlink="http://www.w3.org/1999/xlink" x="0px" y="0px"
	 viewBox="0 0 202.63672 225.43384" enable-background="new 0 0 202.63672 225.43384" xml:space="preserve">
<g>
	
		<radialGradient id="SVGID_1_" cx="144.67874" cy="60.49041" r="141.93092" fx="172.73991" fy="-26.49967" gradientUnits="userSpaceOnUse">
		<stop  offset="0" style="stop-color:#4C9845"/>
		<stop  offset="0.31526" style="stop-color:#D2FF93"/>
		<stop  offset="0.45355" style="stop-color:#ABF245"/>
		<stop  offset="0.80933" style="stop-color:#FFFF00"/>
		<stop  offset="1" style="stop-color:#98FF00"/>
	</radialGradient>
	<polygon fill="url(#SVGID_1_)" points="194.94618,113.37336 178.60965,124.86115 195.99062,143.38219 165.48102,143.34012 
		202.63672,188.15158 138.91861,143.64128 140.52504,160.1456 127.80382,152.55396 133.27249,225.43384 113.54373,184.67575 
		100.20072,189.036 99.01879,153.28117 62.98119,200.91856 59.67458,177.57225 52.35336,164.71748 78.63551,133.49306 0,154.70067 
		73.03178,120.54948 58.363,113.37332 31.54457,98.91196 7.4647,74.76276 47.27592,75.12012 44.99315,55.84721 84.91854,79.23485 
		54.12682,10.51724 85.32021,35.82699 93.58466,0 113.54375,61.00253 127.31396,35.27557 137.411,47.79679 155.02432,41.53143 
		177.78191,36.82687 176.2487,60.75724 199.07613,63.98117 201.28358,81.43822 165.44589,99.98131 	"/>
	<polygon opacity="0.73" fill="#559E00" points="177.78191,36.82687 101.31836,112.71692 176.2487,60.75724 	"/>
	<polygon opacity="0.73" fill="#559E00" points="199.07613,63.98117 201.28358,81.43822 165.44589,99.98131 101.31836,112.71692 	
		"/>
	<polygon opacity="0.73" fill="#559E00" points="194.94618,113.37336 178.60965,124.86115 101.31836,112.71692 168.18939,112.71692 
			"/>
	<polygon opacity="0.73" fill="#559E00" points="195.99062,143.38219 101.31836,112.71692 165.48102,143.34012 	"/>
	<polygon opacity="0.73" fill="#559E00" points="202.63672,188.15158 138.91861,143.64128 101.31836,112.71692 	"/>
	<polygon opacity="0.73" fill="#559E00" points="140.52504,160.1456 101.31836,112.71692 127.80382,152.55396 	"/>
	<polygon opacity="0.73" fill="#559E00" points="113.54373,184.67575 101.31836,112.71692 99.01879,153.28117 100.20072,189.036 	
		"/>
	<polygon opacity="0.73" fill="#559E00" points="59.67458,177.57225 62.98119,200.91856 99.01879,153.28117 101.31836,112.71692 
		88.66678,150.87646 	"/>
	<polygon opacity="0.73" fill="#559E00" points="0,154.70067 101.31836,112.71692 78.63551,133.49306 	"/>
	<polygon opacity="0.73" fill="#559E00" points="7.4647,74.76276 101.31836,112.71692 73.03178,120.54948 31.54457,98.91196 	"/>
	<polygon fill="#559E00" points="47.27592,75.12012 44.99315,55.84721 83.72455,88.34904 101.31836,112.71692 	"/>
	<polygon opacity="0.73" fill="#559E00" points="84.91854,79.23485 54.12682,10.51724 85.32021,35.82699 85.32021,63.98117 
		101.31836,112.71692 	"/>
	<polygon opacity="0.73" fill="#559E00" points="127.31396,35.27557 122.79066,62.05574 101.31836,112.71692 137.411,47.79679 	"/>
	<polygon fill="#E6FFB9" points="137.411,47.79679 145.97955,68.39069 177.78191,36.82687 	"/>
	<polygon fill="#E6FFB9" points="199.07613,63.98117 168.18939,78.03563 176.2487,60.75724 	"/>
	<polygon fill="#E6FFB9" points="194.94618,113.37336 165.44589,99.98131 168.18939,112.71692 	"/>
	<polygon fill="#E6FFB9" points="178.60965,124.86115 173.15643,133.7088 195.99062,143.38219 	"/>
	<polygon fill="#E6FFB9" points="165.48102,143.34012 165.44589,154.70067 202.63672,188.15158 	"/>
	<polygon fill="#E6FFB9" points="138.91861,143.64128 140.52504,160.1456 119.36468,134.54773 	"/>
	<polygon fill="#E6FFB9" points="113.54373,184.67575 127.80382,152.55396 101.31836,112.71692 	"/>
	<polygon fill="#E6FFB9" points="88.66678,150.87646 73.15575,154.70067 78.63551,133.49306 101.31836,112.71692 	"/>
	<polygon fill="#E6FFB9" points="73.03178,120.54948 59.67458,129.97304 101.31836,112.71692 	"/>
	<polygon fill="#E6FFB9" points="47.27592,75.12012 35.31554,86.02557 7.4647,74.76276 	"/>
	<polygon opacity="0.73" fill="#E6FFB9" points="44.99315,55.84721 83.72455,88.34904 84.91854,79.23485 	"/>
	<polygon fill="#E6FFB9" points="85.32021,63.98117 99.01879,78.03563 96.97749,44.0163 92.1695,30.01331 93.58466,0 
		85.32021,35.82699 	"/>
	<polygon opacity="0.73" fill="#559E00" points="113.54375,61.00253 112.68676,73.99625 101.31836,112.71692 99.01879,78.03563 	"/>
	<polygon fill="#357C00" points="100.20072,189.036 113.54373,184.67575 133.27249,225.43384 	"/>
	
		<radialGradient id="SVGID_2_" cx="849.82751" cy="425.8497" r="93.67091" fx="868.34723" fy="368.43839" gradientTransform="matrix(0.43788 0.89903 -0.89903 0.43788 191.57811 -854.05914)" gradientUnits="userSpaceOnUse">
		<stop  offset="0" style="stop-color:#4C9845"/>
		<stop  offset="0.31526" style="stop-color:#D2FF93"/>
		<stop  offset="0.45355" style="stop-color:#ABF245"/>
		<stop  offset="0.80933" style="stop-color:#FFFF00"/>
		<stop  offset="1" style="stop-color:#98FF00"/>
	</radialGradient>
	<polygon fill="url(#SVGID_2_)" points="192.16539,125.54105 163.23824,148.48383 101.31836,112.71692 166.09875,92.62438 	"/>
	<polygon fill="#E6FFB9" points="192.16539,125.54105 166.09875,92.62438 148.56085,120.26488 	"/>
	<polygon opacity="0.73" fill="#559E00" points="192.16539,125.54105 163.23824,148.48383 101.31836,112.71692 148.56085,120.26488 
			"/>
	<polygon fill="#559E00" points="148.56085,120.26488 163.23824,148.48383 101.31836,112.71692 	"/>
	<radialGradient id="SVGID_3_" cx="47.50072" cy="57.94705" r="104.45481" gradientUnits="userSpaceOnUse">
		<stop  offset="0" style="stop-color:#4C9845"/>
		<stop  offset="0.31526" style="stop-color:#D2FF93"/>
		<stop  offset="0.45355" style="stop-color:#ABF245"/>
		<stop  offset="0.80933" style="stop-color:#FFFF00"/>
		<stop  offset="1" style="stop-color:#98FF00"/>
	</radialGradient>
	<polygon fill="url(#SVGID_3_)" points="134.96111,112.23543 112.57345,75.34383 67.67562,103.22875 82.91854,151.40289 	"/>
	<polygon fill="#E6FFB9" points="112.57345,75.34383 102.89339,103.22875 67.67562,103.22875 	"/>
	<polygon fill="#357C00" points="134.96111,112.23543 102.89339,103.22875 82.91854,151.40289 	"/>
</g>
</svg>
