<?xml version="1.0" encoding="utf-8"?>
<!-- Generator: Adobe Illustrator 21.0.0, SVG Export Plug-In . SVG Version: 6.00 Build 0)  -->
<svg version="1.1" id="Layer_1" xmlns="http://www.w3.org/2000/svg" xmlns:xlink="http://www.w3.org/1999/xlink" x="0px" y="0px"
	 viewBox="0 0 260.69568 137.45506" enable-background="new 0 0 260.69568 137.45506" xml:space="preserve">
<g>
	<g>
		<g>
			<polygon fill="#A5FF45" points="260.69568,69.37617 241.74617,68.22707 240.52377,73.76841 242.16855,76.79559 			"/>
			<polygon fill="#A5FF45" points="18.6017,83.29288 20.1138,75.04785 2.72632,80.09705 			"/>
			<polygon fill="#A5FF45" points="229.04132,65.72974 221.09241,73.86143 220.04956,71.94125 218.6017,78.50309 
				203.91551,68.93457 200.13905,86.05025 185.45346,76.48144 181.67578,93.59764 166.99295,84.02772 163.21588,101.14362 
				148.52745,91.57603 144.75012,108.69204 130.05826,99.12582 123.76195,116.7771 118.01525,99.6185 104.49738,109.75627 
				101.62843,93.10461 88.10947,103.24193 85.23827,86.58939 71.71948,96.72678 68.84883,80.07448 55.33131,90.21236 
				52.46273,73.56085 38.94304,83.69786 36.0694,67.04438 34.40595,68.29166 32.38103,79.32829 27.21147,73.68586 
				22.54944,77.18131 21.17836,69.24356 20.1138,75.04785 20.58159,74.91203 23.45821,91.5667 36.97818,81.4298 39.85181,98.08328 
				53.37151,87.94627 56.24009,104.59779 69.75761,94.45985 72.62826,111.11216 86.14705,100.97481 89.01824,117.62734 
				102.53721,107.49003 105.40614,124.14165 118.92403,114.00388 124.67072,131.16252 130.96704,113.51124 145.65891,123.07745 
				149.43623,105.96141 164.12465,115.52904 167.90172,98.41309 182.58456,107.98302 186.36223,90.86686 201.04782,100.43563 
				204.82428,83.31995 219.51048,92.88847 223.28703,75.77277 237.97073,85.34233 240.52377,73.76841 237.62053,68.42489 
				237.06195,70.95692 			"/>
			<polygon fill="#A5FF45" points="236.15318,56.57154 228.13255,51.34436 220.18364,59.47606 219.14079,57.55587 
				217.69293,64.11767 214.7643,62.20959 220.04956,71.94125 222.37825,61.38736 229.04132,65.72974 233.61444,61.05156 
				237.62053,68.42489 239.61499,59.38299 236.71175,54.03951 			"/>
			<polygon fill="#A5FF45" points="27.21147,73.68586 34.40595,68.29166 35.2862,63.49358 37.43467,65.83811 35.16063,52.659 
				33.49709,53.90628 31.47226,64.94292 26.30269,59.30044 21.64066,62.79589 20.26959,54.85814 19.20502,60.66243 
				19.67282,60.52661 21.17836,69.24356 21.50582,67.45841 			"/>
			<polygon fill="#A5FF45" points="184.54468,62.09606 184.49535,62.31978 184.64812,62.16349 			"/>
			<polygon fill="#A5FF45" points="46.16331,75.3629 48.74686,61.28022 39.56608,68.16393 			"/>
			<polygon fill="#A5FF45" points="210.96329,59.73313 203.00673,54.54915 199.57414,70.10609 200.02046,70.9279 			"/>
			<polygon fill="#A5FF45" points="17.69292,68.90746 19.20502,60.66243 1.81755,65.71167 			"/>
			<polygon fill="#A5FF45" points="259.78693,54.9908 240.83739,53.84169 239.61499,59.38299 241.25978,62.41021 			"/>
			<polygon fill="#A5FF45" points="49.88899,60.42386 52.20428,62.95046 51.55396,59.17548 			"/>
			<polygon fill="#A5FF45" points="26.30269,59.30044 33.49709,53.90628 34.37742,49.10816 36.52589,51.45274 34.25185,38.27358 
				32.58841,39.52085 30.56348,50.5575 25.39392,44.91506 20.73189,48.41052 19.36081,40.47276 18.29625,46.27705 
				18.76404,46.14124 20.26959,54.85814 20.59705,53.07299 			"/>
			<polygon fill="#A5FF45" points="227.22379,36.95894 219.27486,45.09064 218.23201,43.17045 216.78415,49.73229 
				213.85553,47.82421 219.14079,57.55587 221.46948,47.00198 228.13255,51.34436 232.70567,46.66614 236.71175,54.03951 
				238.70622,44.99761 235.80298,39.65409 235.2444,42.18612 			"/>
			<polygon fill="#A5FF45" points="183.58658,47.9344 183.73943,47.77806 183.63591,47.71064 			"/>
			<polygon fill="#A5FF45" points="16.78415,54.52208 18.29625,46.27705 0.90877,51.32625 			"/>
			<polygon fill="#A5FF45" points="48.98022,46.03844 51.29551,48.56509 50.64518,44.79005 			"/>
			<polygon fill="#A5FF45" points="45.25454,60.97752 47.83809,46.89479 38.6573,53.7785 			"/>
			<polygon fill="#A5FF45" points="258.87814,40.60538 239.92862,39.45627 238.70622,44.99761 240.351,48.02479 			"/>
			<polygon fill="#A5FF45" points="198.66537,55.72067 199.11168,56.54248 210.0545,45.34775 202.09796,40.16378 			"/>
			<polygon fill="#A5FF45" points="199.57414,70.10609 191.47107,55.1845 184.64812,62.16349 199.23027,71.66483 			"/>
			<polygon fill="#A5FF45" points="48.74686,61.28022 49.88899,60.42386 49.06831,59.5282 			"/>
			<polygon fill="#A5FF45" points="210.96329,59.73313 214.7643,62.20959 212.54213,58.11796 			"/>
			<polygon fill="#A5FF45" points="164.50885,58.27752 161.39833,72.37282 146.7099,62.80524 142.93257,79.92124 
				128.24071,70.35502 121.9444,88.0063 116.19771,70.8477 102.67982,80.98547 99.81088,64.33381 86.29192,74.47113 
				83.67321,59.28272 82.77492,58.30284 74.22239,64.71619 73.72382,67.4333 72.45121,66.04432 69.90193,67.95599 
				68.90513,62.17375 62.84886,55.56331 59.945,71.39772 52.20428,62.95046 54.42253,75.82699 67.94006,65.68906 70.81071,82.34136 
				84.3295,72.20401 87.20069,88.85655 100.71966,78.71923 103.5886,95.37085 117.10648,85.23308 122.85318,102.39172 
				129.14949,84.74044 143.84135,94.30666 147.61868,77.19061 162.3071,86.75824 166.08417,69.6423 180.76701,79.21222 
				184.49535,62.31978 178.94778,67.99424 175.78732,62.17353 166.57184,56.16707 			"/>
			<polygon fill="#A5FF45" points="39.56608,68.16393 37.43467,65.83811 38.03426,69.31248 			"/>
			<polygon fill="#A5FF45" points="25.39392,44.91506 32.58841,39.52085 33.46865,34.72279 44.34577,46.5921 47.25076,30.7574 
				58.12745,42.62692 61.03131,26.79252 71.90627,38.6625 74.81203,22.82758 85.69115,34.69637 88.59709,18.86139 
				102.06517,29.36868 104.1684,14.61527 113.92318,30.424 126.44387,17.6139 134.98962,33.35678 147.51173,20.5469 
				156.06033,36.29018 168.58228,23.48026 177.13023,39.22344 189.65352,26.4137 198.20291,42.1571 210.72458,29.34716 
				218.23201,43.17045 220.5607,32.61656 227.22379,36.95894 231.79689,32.28076 235.80298,39.65409 237.79744,30.61219 
				230.88812,17.89534 218.36609,30.70526 209.81581,14.96179 197.29413,27.77168 188.74474,12.02833 176.22147,24.83802 
				167.67349,9.09488 155.15155,21.90475 146.60297,6.16148 134.08084,18.97136 125.5351,3.22853 113.0144,16.03858 
				103.25963,0.22985 101.15639,14.9833 87.68831,4.47597 84.78237,20.31095 73.90326,8.4422 70.99749,24.27712 60.12254,12.40714 
				57.21867,28.2415 46.34198,16.37203 43.43699,32.20673 32.55988,20.33737 29.65471,36.17212 18.7795,24.3022 17.38747,31.89163 
				17.85527,31.75582 19.36081,40.47276 19.68827,38.68762 			"/>
			<polygon fill="#A5FF45" points="257.96936,26.22001 239.01984,25.07089 237.79744,30.61219 239.44223,33.63941 			"/>
			<polygon fill="#A5FF45" points="15.87537,40.13667 17.38747,31.89163 0,36.94087 			"/>
			<polygon fill="#A5FF45" points="183.73943,47.77806 198.3215,57.27946 198.66537,55.72067 190.56229,40.79913 			"/>
			<polygon fill="#A5FF45" points="210.0545,45.34775 213.85553,47.82421 211.63336,43.73258 			"/>
			<polygon fill="#A5FF45" points="47.83809,46.89479 48.98022,46.03844 48.15953,45.14283 			"/>
			<polygon fill="#A5FF45" points="38.6573,53.7785 36.52589,51.45274 37.12549,54.92706 			"/>
			<polygon fill="#A5FF45" points="169.49104,37.86568 156.9691,50.67555 148.42052,34.93228 135.89839,47.74216 
				127.35265,31.99932 114.83195,44.80938 105.07718,29.00064 102.97395,43.7541 89.50586,33.24677 86.59991,49.08175 
				75.72081,37.21299 72.81504,53.04792 61.94009,41.17794 59.03622,57.0123 51.29551,48.56509 53.51376,61.44157 
				67.03128,51.30368 68.90513,62.17375 72.45121,66.04432 74.22239,64.71619 76.62959,51.59837 82.77492,58.30284 
				83.42072,57.81859 83.67321,59.28272 87.5087,63.46716 90.41463,47.63219 103.88272,58.13948 105.98595,43.38606 
				115.74073,59.1948 128.26143,46.3847 136.80717,62.12758 149.32928,49.3177 157.87788,65.06097 164.50885,58.27752 
				165.1754,55.25692 166.57184,56.16707 170.39983,52.25106 175.78732,62.17353 179.85825,64.82684 183.58658,47.9344 
				178.03902,53.60882 			"/>
		</g>
		<g>
			<polygon fill="#00B941" points="260.78262,78.93475 241.94325,76.5932 240.37392,82.04646 241.82457,85.17131 			"/>
			<polygon fill="#00B941" points="18.29286,77.56029 20.32178,69.427 2.65056,73.3699 			"/>
			<polygon fill="#005C41" points="229.42114,73.29983 220.97536,80.91419 220.05563,78.93207 218.19695,85.38958 
				204.14325,74.91416 199.2952,91.7577 185.24211,81.28202 180.39282,98.126 166.34256,87.6494 161.49388,104.49311 
				147.4379,94.01849 142.58896,110.86229 128.52945,100.38881 121.13279,117.60801 116.47934,100.12122 102.34919,109.38656 
				100.5358,92.58714 86.4046,101.85195 84.58902,85.05153 70.45798,94.31642 68.64294,77.51626 54.51314,86.78172 
				52.70011,69.98248 38.5682,79.24694 36.75024,62.44541 35.01146,63.58533 32.29474,74.47234 27.4912,68.51521 22.61807,71.70978 
				21.75017,63.70137 20.32178,69.427 20.79721,69.32095 22.61807,86.12383 36.75024,76.85951 38.5682,93.66103 52.70011,84.39658 
				54.51314,101.19582 68.64294,91.93031 70.45798,108.73048 84.58902,99.46562 86.4046,116.26605 100.5358,107.00124 
				102.34919,123.80061 116.47934,114.53528 121.13279,132.02211 128.52945,114.80291 142.58896,125.27638 147.4379,108.43254 
				161.49388,118.9072 166.34256,102.06345 180.39282,112.54005 185.24211,95.69612 199.2952,106.17175 204.14325,89.32822 
				218.19695,99.80363 223.04509,82.96009 237.09624,93.43639 240.37392,82.04646 237.81334,76.53052 237.09624,79.02229 			"/>
			<polygon fill="#00B941" points="237.09624,64.60824 229.42114,58.88578 220.97536,66.50014 220.05563,64.51802 
				218.19695,70.97548 215.39444,68.88656 220.05563,78.93207 223.04509,68.546 229.42114,73.29983 234.28011,68.91928 
				237.81334,76.53052 240.37392,67.63235 237.81334,62.11647 			"/>
			<polygon fill="#00B941" points="27.4912,68.51521 35.01146,63.58533 36.19247,58.8523 38.18884,61.32762 36.75024,48.03136 
				35.01138,49.17128 32.29474,60.05829 27.4912,54.10111 22.61807,57.29568 21.75017,49.28727 20.32178,55.0129 20.79721,54.90685 
				21.75017,63.70137 22.18953,61.94043 			"/>
			<polygon fill="#00B941" points="185.24211,66.86797 185.17877,67.08813 185.34108,66.94178 			"/>
			<polygon fill="#00B941" points="46.29961,71.38378 49.7659,57.492 40.16938,63.78319 			"/>
			<polygon fill="#00B941" points="211.75713,66.17537 204.14325,60.50006 199.73666,75.80964 200.13026,76.65795 			"/>
			<polygon fill="#00B941" points="18.29286,63.14619 20.32178,55.0129 2.65056,58.95585 			"/>
			<polygon fill="#00B941" points="260.78262,64.5207 241.94325,62.17915 240.37392,67.63235 241.82457,70.75726 			"/>
			<polygon fill="#00B941" points="50.95975,56.70936 53.11114,59.37691 52.70011,55.56843 			"/>
			<polygon fill="#00B941" points="27.4912,54.10111 35.01138,49.17128 36.19247,44.43821 38.18884,46.91357 36.75024,33.61726 
				35.01146,34.75718 32.29474,45.64419 27.4912,39.68705 22.61807,42.88163 21.75017,34.87322 20.32178,40.59885 
				20.79721,40.49279 21.75017,49.28727 22.18953,47.52633 			"/>
			<polygon fill="#00B941" points="229.42114,44.47168 220.97536,52.08604 220.05563,50.10392 218.19695,56.56143 
				215.39444,54.4725 220.05563,64.51802 223.04509,54.13194 229.42114,58.88578 234.28011,54.50519 237.81334,62.11647 
				240.37392,53.2183 237.81334,47.70237 237.09624,50.19414 			"/>
			<polygon fill="#00B941" points="185.17877,52.67408 185.34117,52.52768 185.24211,52.45387 			"/>
			<polygon fill="#00B941" points="18.29286,48.73214 20.32178,40.59885 2.65056,44.54176 			"/>
			<polygon fill="#00B941" points="50.95975,42.29527 53.11114,44.96286 52.70011,41.15434 			"/>
			<polygon fill="#00B941" points="46.29961,56.96973 49.7659,43.07791 40.16938,49.36909 			"/>
			<polygon fill="#00B941" points="260.78262,50.1066 241.94325,47.76505 240.37392,53.2183 241.82457,56.34315 			"/>
			<polygon fill="#00B941" points="199.73666,61.39554 200.13026,62.24386 211.75713,51.76132 204.14325,46.08601 			"/>
			<polygon fill="#00B941" points="199.73666,75.80964 192.59047,60.40686 185.34108,66.94178 199.2952,77.34361 			"/>
			<polygon fill="#00B941" points="49.7659,57.492 50.95975,56.70936 50.19716,55.76374 			"/>
			<polygon fill="#00B941" points="211.75713,66.17537 215.39444,68.88656 213.43468,64.66296 			"/>
			<polygon fill="#00B941" points="165.48689,61.79381 161.49388,75.66496 147.4379,65.19034 142.58896,82.03413 
				128.52945,71.56066 121.13279,88.77985 116.47934,71.29308 102.34919,80.55841 100.5358,63.759 86.4046,73.0238 
				84.7487,57.70051 83.91397,56.66594 74.97411,62.52732 74.30522,65.20758 73.12272,63.74114 70.45798,65.48827 69.82772,59.6547 
				64.20028,52.67558 60.30387,68.29539 53.11114,59.37691 54.51314,72.36767 68.64294,63.10216 70.45798,79.90232 
				84.58902,70.63747 86.4046,87.4379 100.5358,78.1731 102.34919,94.97247 116.47934,85.70713 121.13279,103.19395 
				128.52945,85.97475 142.58896,96.44823 147.4379,79.60439 161.49388,90.07906 166.34256,73.2353 180.39282,83.7119 
				185.17877,67.08813 179.28448,72.40154 176.4973,66.39316 167.67883,59.81763 			"/>
			<polygon fill="#00B941" points="40.16938,63.78319 38.18884,61.32762 38.5682,64.83289 			"/>
			<polygon fill="#00B941" points="27.4912,39.68705 35.01146,34.75718 36.19247,30.02415 46.29961,42.55563 50.19716,26.93559 
				60.30387,39.46724 64.20028,23.84742 74.30522,36.37943 78.20357,20.75921 88.31273,33.29029 92.21125,17.67004 
				104.99008,29.00556 108.0193,14.4141 116.75797,30.8064 130.0614,18.81118 137.59758,35.06153 150.90242,23.06663 
				158.44144,39.31755 171.74609,27.3226 179.28448,43.57339 192.59047,31.5787 200.13026,47.8298 213.43468,35.83481 
				220.05563,50.10392 223.04509,39.71785 229.42114,44.47168 234.28011,40.09113 237.81334,47.70237 240.37392,38.80421 
				234.28011,25.67704 220.97536,37.67199 213.43468,21.42076 200.13026,33.41571 192.59047,17.16465 179.28448,29.1593 
				171.74609,12.90855 158.44144,24.90346 150.90242,8.65253 137.59758,20.64744 130.0614,4.39713 116.75797,16.3923 108.0193,0 
				104.99008,14.5915 92.21125,3.25594 88.31273,18.8762 78.20357,6.34516 74.30522,21.96538 64.20028,9.43337 60.30387,25.05315 
				50.19716,12.52154 46.29961,28.14158 36.19247,15.61006 32.29474,31.23014 22.18953,18.69818 20.32178,26.18475 
				20.79721,26.0787 21.75017,34.87322 22.18953,33.11227 			"/>
			<polygon fill="#00B941" points="260.78262,35.69255 241.94325,33.351 240.37392,38.80421 241.82457,41.9291 			"/>
			<polygon fill="#00B941" points="18.29286,34.31804 20.32178,26.18475 2.65056,30.1277 			"/>
			<polygon fill="#00B941" points="185.34117,52.52768 199.2952,62.92955 199.73666,61.39554 192.59047,45.9928 			"/>
			<polygon fill="#00B941" points="211.75713,51.76132 215.39444,54.4725 213.43468,50.24891 			"/>
			<polygon fill="#00B941" points="49.7659,43.07791 50.95975,42.29527 50.19716,41.34969 			"/>
			<polygon fill="#00B941" points="40.16938,49.36909 38.18884,46.91357 38.5682,50.41879 			"/>
			<polygon fill="#005C41" points="171.74609,41.7367 158.44144,53.73161 150.90242,37.48068 137.59758,49.47559 130.0614,33.22528 
				116.75797,45.22045 108.0193,28.82815 104.99008,43.41965 92.21125,32.08409 88.31273,47.70435 78.20357,35.17331 
				74.30522,50.79353 64.20028,38.26152 60.30387,53.8813 53.11114,44.96286 54.51314,57.95358 68.64294,48.68811 69.82772,59.6547 
				73.12272,63.74114 74.97411,62.52732 78.20357,49.58736 83.91397,56.66594 84.58902,56.22338 84.7487,57.70051 
				88.31273,62.11845 92.21125,46.49818 104.99008,57.83371 108.0193,43.24225 116.75797,59.63455 130.0614,47.63934 
				137.59758,63.88969 150.90242,51.89478 158.44144,68.1457 165.48689,61.79381 166.34256,58.82125 167.67883,59.81763 
				171.74609,56.15075 176.4973,66.39316 180.39282,69.29785 185.17877,52.67408 179.28448,57.98745 			"/>
		</g>
		<g opacity="0.2">
			<polygon points="261.2132,78.51855 242.29176,76.97456 240.95409,82.48921 242.53539,85.55003 			"/>
			<polygon points="18.88166,87.38409 20.56536,79.17238 3.07638,83.85791 			"/>
			<polygon points="229.64175,74.21285 221.52501,82.17703 220.52243,80.23551 218.93805,86.76574 204.45457,76.89307 
				200.32204,93.92628 185.83917,84.05331 181.70541,101.08703 167.22533,91.21302 163.09218,108.24644 148.60645,98.37465 
				144.47304,115.40816 129.98384,105.53767 123.32083,123.05383 117.93318,105.77913 104.20684,115.63282 101.68575,98.92496 
				87.95834,108.77817 85.43501,92.06939 71.70777,101.92268 69.18497,85.21413 55.459,95.06796 52.93826,78.36024 
				39.21013,88.21313 36.68438,71.50336 34.99529,72.71568 32.74067,83.70769 27.68988,77.95869 22.95598,81.35617 
				21.75072,73.39155 20.56536,79.17238 21.03588,79.04635 23.56459,95.75737 37.29299,85.90459 39.81875,102.61438 
				53.54688,92.76149 56.06761,109.46919 69.79359,99.61533 72.31638,116.32388 86.04362,106.47063 88.56695,123.17941 
				102.29436,113.3262 104.81545,130.03403 118.54179,120.18033 123.92945,137.45506 130.59245,119.93891 145.08165,129.80942 
				149.21506,112.77585 163.70079,122.64768 167.83394,105.61422 182.31403,115.48823 186.44778,98.45456 200.93065,108.32748 
				205.06319,91.29427 219.54666,101.16694 223.67929,84.13372 238.16026,94.00738 240.95409,82.48921 238.1629,77.08631 
				237.55165,79.60614 			"/>
			<polygon points="236.94304,65.20494 229.03314,59.81165 220.9164,67.77583 219.91382,65.83431 218.32944,72.36449 
				215.44124,70.39577 220.52243,80.23551 223.07068,69.73248 229.64175,74.21285 234.31143,69.63105 238.1629,77.08631 
				240.34547,68.08797 237.55429,62.68511 			"/>
			<polygon points="27.68988,77.95869 34.99529,72.71568 35.97539,67.937 38.0745,70.32582 36.07577,57.10216 34.38659,58.31448 
				32.13206,69.30649 27.08127,63.55744 22.34737,66.95493 21.14211,58.99031 19.95674,64.77114 20.42727,64.6451 
				21.75072,73.39155 22.11533,71.61362 			"/>
			<polygon points="185.23056,69.65212 185.17657,69.87476 185.33257,69.72169 			"/>
			<polygon points="46.60264,80.03055 49.47928,66.0048 40.15695,72.69557 			"/>
			<polygon points="211.69269,67.84058 203.84596,62.49182 200.08974,77.9738 200.51881,78.80474 			"/>
			<polygon points="18.27304,72.98285 19.95674,64.77114 2.46776,69.45671 			"/>
			<polygon points="260.60458,64.11736 241.68315,62.57336 240.34547,68.08797 241.92677,71.14883 			"/>
			<polygon points="50.63902,65.17244 52.90112,67.74677 52.32965,63.95905 			"/>
			<polygon points="27.08127,63.55744 34.38659,58.31448 35.36678,53.53576 37.46589,55.92462 35.46716,42.70091 33.77806,43.91323 
				31.52344,54.90525 26.47265,49.15624 21.73876,52.55373 20.53349,44.58911 19.34813,50.36994 19.81866,50.2439 
				21.14211,58.99031 21.50672,57.21238 			"/>
			<polygon points="228.42453,45.41041 220.30779,53.37459 219.30521,51.43307 217.72083,57.9633 214.83263,55.99457 
				219.91382,65.83431 222.46207,55.33128 229.03314,59.81165 233.70282,55.2298 237.55429,62.68511 239.73686,53.68677 
				236.94566,48.28387 236.33443,50.8037 			"/>
			<polygon points="184.56796,55.47356 184.72403,55.32044 184.62195,55.25088 			"/>
			<polygon points="17.66443,58.58165 19.34813,50.36994 1.85915,55.05547 			"/>
			<polygon points="50.0304,50.7712 52.29251,53.34557 51.72104,49.5578 			"/>
			<polygon points="45.99403,65.62935 48.87067,51.60355 39.54834,58.29433 			"/>
			<polygon points="259.99597,49.71611 241.07454,48.17212 239.73686,53.68677 241.31816,56.74758 			"/>
			<polygon points="199.48112,63.57256 199.9102,64.4035 211.08408,53.43938 203.23735,48.09063 			"/>
			<polygon points="200.08974,77.9738 192.29956,62.88649 185.33257,69.72169 199.71342,79.52504 			"/>
			<polygon points="49.47928,66.0048 50.63902,65.17244 49.83718,64.25986 			"/>
			<polygon points="211.69269,67.84058 215.44124,70.39577 213.30487,66.25869 			"/>
			<polygon points="165.2787,65.41662 161.87495,79.444 147.38922,69.57221 143.25581,86.60573 128.76662,76.73523 
				122.10361,94.25139 116.71595,76.97668 102.98962,86.83038 100.46852,70.12251 86.74111,79.97573 84.43968,64.73602 
				83.56202,63.73762 74.87762,69.97124 74.32249,72.67735 73.07913,71.26215 70.49055,73.12024 69.61452,67.31848 
				63.69742,60.58319 60.464,76.3536 52.90112,67.74677 54.85039,80.66676 68.57636,70.8129 71.09916,87.52144 84.82639,77.66819 
				87.34972,94.37698 101.07714,84.52376 103.59823,101.23158 117.32456,91.37788 122.71222,108.65263 129.37523,91.13647 
				143.86443,101.00697 147.99783,83.97341 162.48357,93.84524 166.61671,76.81178 181.0968,86.68578 185.17657,69.87476 
				179.5119,75.43231 176.4735,69.54697 167.38525,63.34965 			"/>
			<polygon points="40.15695,72.69557 38.0745,70.32582 38.60152,73.81194 			"/>
			<polygon points="26.47265,49.15624 33.77806,43.91323 34.75816,39.13456 45.38541,51.2281 48.61996,35.45742 59.24678,47.55116 
				62.48019,31.78075 73.10527,43.87492 76.3406,28.10403 86.96986,40.19709 90.20536,24.42615 103.45141,35.21199 
				105.86183,20.50564 115.28484,36.51435 128.06993,23.96811 136.28554,39.88577 149.07205,27.33978 157.29051,43.25789 
				170.07684,30.71187 178.29468,46.62987 191.08234,34.08405 199.30159,50.0023 212.08765,37.45625 219.30521,51.43307 
				221.85345,40.93003 228.42453,45.41041 233.09421,40.82861 236.94566,48.28387 239.12825,39.28553 232.4856,26.42736 
				219.69917,38.97339 211.47903,23.05505 198.69296,35.60106 190.47372,19.68285 177.68605,32.22863 169.46823,16.31067 
				156.6819,28.85665 148.46344,12.93854 135.67693,25.48453 127.46131,9.56692 114.67622,22.11311 105.25321,6.1044 
				102.8428,20.81079 89.59674,10.02491 86.36124,25.79585 75.73199,13.70283 72.49666,29.47372 61.87158,17.37955 
				58.63816,33.14992 48.01135,21.05622 44.7768,36.8269 34.14955,24.73332 30.91483,40.50405 20.28949,28.40994 18.73952,35.9687 
				19.21004,35.84266 20.53349,44.58911 20.89811,42.81118 			"/>
			<polygon points="259.38736,35.31492 240.46593,33.77092 239.12825,39.28553 240.70955,42.34638 			"/>
			<polygon points="17.05582,44.1804 18.73952,35.9687 1.25054,40.65427 			"/>
			<polygon points="184.72403,55.32044 199.10481,65.12384 199.48112,63.57256 191.69095,48.48529 			"/>
			<polygon points="211.08408,53.43938 214.83263,55.99457 212.69626,51.85749 			"/>
			<polygon points="48.87067,51.60355 50.0304,50.7712 49.22857,49.85867 			"/>
			<polygon points="39.54834,58.29433 37.46589,55.92462 37.99291,59.4107 			"/>
			<polygon points="170.68546,45.11311 157.89912,57.65909 149.68066,41.74098 136.89415,54.28697 128.67854,38.36936 
				115.89345,50.91555 106.47044,34.90684 104.06003,49.61324 90.81397,38.82735 87.57847,54.59829 76.94921,42.50527 
				73.71388,58.27616 63.08881,46.182 59.85539,61.95236 52.29251,53.34557 54.24177,66.26551 67.96775,56.4117 69.61452,67.31848 
				73.07913,71.26215 74.87762,69.97124 77.55782,56.90647 83.56202,63.73762 84.21778,63.26694 84.43968,64.73602 
				88.18708,68.99953 91.42258,53.22859 104.66864,64.01443 107.07906,49.30809 116.50206,65.3168 129.28716,52.77056 
				137.50278,68.68821 150.28928,56.14222 158.50774,72.06033 165.2787,65.41662 166.0081,62.41058 167.38525,63.34965 
				171.29407,59.51431 176.4735,69.54697 180.48819,72.28458 184.56796,55.47356 178.90329,61.03107 			"/>
		</g>
	</g>
	<g opacity="0.52">
		<g>
			<polygon fill="#A5FF45" points="6.73911,52.61966 22.50257,53.81317 23.93524,49.76458 22.78377,47.51025 			"/>
			<polygon fill="#A5FF45" points="210.24631,46.85764 208.37112,52.88725 223.28712,49.49818 			"/>
			<polygon fill="#A5FF45" points="32.94342,55.88209 40.19366,50.0544 40.92367,51.48435 42.62048,46.69017 54.19484,53.99068 
				58.62066,41.48571 70.19451,48.78644 74.62137,36.28111 86.19283,43.58259 90.61917,31.07748 102.19548,38.37735 
				106.62205,25.87216 118.20132,33.17109 124.77429,20.31907 128.31004,33.0311 140.36647,25.83223 141.53293,38.11878 
				153.59023,30.92027 154.75851,43.2075 166.81566,36.00893 167.98351,48.29598 180.03964,41.09702 181.20581,53.38345 
				193.26369,46.18518 194.43394,58.47315 195.91753,57.58746 198.42831,49.51637 202.33411,53.75705 206.49205,51.27493 
				207.05099,57.13193 208.37112,52.88725 207.96983,52.9784 206.79716,40.68951 194.73907,47.8877 193.56882,35.59972 
				181.51094,42.798 180.34477,30.51157 168.28864,37.71056 167.12079,25.4235 155.06364,32.62205 153.89536,20.33481 
				141.83806,27.53333 140.6716,15.24681 128.61517,22.44568 125.07942,9.73362 118.50645,22.58563 106.92717,15.2867 
				102.5006,27.79192 90.9243,20.49202 86.49796,32.99717 74.9265,25.69569 70.49963,38.20098 58.92579,30.90029 54.49997,43.40526 
				42.9256,36.10475 38.49971,48.60972 26.9275,41.30849 23.93524,49.76458 25.96772,53.74388 26.62237,51.89394 			"/>
			<polygon fill="#A5FF45" points="26.31725,62.47937 32.63829,66.46751 39.88853,60.63982 40.61855,62.06977 42.31535,57.27562 
				44.62344,58.73143 40.92367,51.48435 38.19458,59.19518 32.94342,55.88209 28.77226,59.23477 25.96772,53.74388 
				23.63012,60.35003 25.66259,64.3293 			"/>
			<polygon fill="#A5FF45" points="202.33411,53.75705 195.91753,57.58746 194.82605,61.09629 193.20277,59.33421 
				194.12881,69.05857 195.61249,68.17288 198.12318,60.10179 202.02898,64.34251 206.18692,61.86039 206.74586,67.71738 
				208.06601,63.4727 207.6647,63.56386 207.05099,57.13193 206.64493,58.4374 			"/>
			<polygon fill="#A5FF45" points="69.88938,59.37186 69.94721,59.20841 69.80787,59.32042 			"/>
			<polygon fill="#A5FF45" points="186.60779,52.17564 183.40425,62.4743 191.59238,57.58619 			"/>
			<polygon fill="#A5FF45" points="47.61907,60.62091 53.88972,64.57613 57.91251,53.21001 57.60009,52.59801 			"/>
			<polygon fill="#A5FF45" points="209.94118,57.4431 208.06601,63.4727 222.98199,60.08361 			"/>
			<polygon fill="#A5FF45" points="6.43398,63.20508 22.19745,64.39859 23.63012,60.35003 22.47865,58.09567 			"/>
			<polygon fill="#A5FF45" points="182.38562,63.0824 180.63631,61.18347 180.90068,63.96887 			"/>
			<polygon fill="#A5FF45" points="202.02898,64.34251 195.61249,68.17288 194.52094,71.68175 192.89766,69.91963 
				193.82368,79.64403 195.30728,78.75834 197.81805,70.68725 201.72386,74.92793 205.88179,72.44581 206.44073,78.3028 
				207.76088,74.05812 207.35957,74.14928 206.74586,67.71738 206.33981,69.02286 			"/>
			<polygon fill="#A5FF45" points="32.33316,77.05296 39.58341,71.22527 40.31342,72.65523 42.01022,67.86105 44.31831,69.31686 
				40.61855,62.06977 37.88945,69.78059 32.63829,66.46751 28.46714,69.82022 25.66259,64.3293 23.32499,70.93546 
				25.35747,74.91476 26.01212,73.06482 			"/>
			<polygon fill="#A5FF45" points="69.64209,69.79383 69.50267,69.90588 69.58426,69.95731 			"/>
			<polygon fill="#A5FF45" points="209.63605,68.02852 207.76088,74.05812 222.67686,70.66906 			"/>
			<polygon fill="#A5FF45" points="182.08049,73.66785 180.33118,71.7689 180.59555,74.55433 			"/>
			<polygon fill="#A5FF45" points="186.30267,62.76105 183.09914,73.05975 191.28725,68.17164 			"/>
			<polygon fill="#A5FF45" points="6.12886,73.79053 21.89232,74.98405 23.32499,70.93546 22.17352,68.68113 			"/>
			<polygon fill="#A5FF45" points="57.60739,63.79547 57.29497,63.18347 47.31395,71.20633 53.58459,75.16156 			"/>
			<polygon fill="#A5FF45" points="57.91251,53.21001 63.58469,64.32198 69.80787,59.32042 58.31554,52.07117 			"/>
			<polygon fill="#A5FF45" points="183.40425,62.4743 182.38562,63.0824 183.00569,63.75555 			"/>
			<polygon fill="#A5FF45" points="47.61907,60.62091 44.62344,58.73143 46.17899,61.77844 			"/>
			<polygon fill="#A5FF45" points="86.36372,62.54658 90.00893,52.24835 101.58523,59.54822 106.0118,47.04303 117.59107,54.34196 
				124.16405,41.48994 127.6998,54.20198 139.75623,47.00311 140.92268,59.28966 152.97998,52.09114 154.0455,63.29805 
				154.72424,64.03451 162.35208,59.48038 162.97026,57.49337 163.93176,58.53728 166.20541,57.1798 166.61095,61.44627 
				171.18666,66.41447 174.7878,54.83475 180.63631,61.18347 179.73451,51.68244 167.67839,58.88143 166.51054,46.59438 
				154.45338,53.79292 153.2851,41.50569 141.2278,48.7042 140.06134,36.41768 128.00493,43.61655 124.46917,30.90449 
				117.8962,43.75651 106.31692,36.45758 101.89035,48.9628 90.31405,41.6629 85.88771,54.16805 74.31625,46.86657 
				69.94721,59.20841 75.00711,55.14174 77.21938,59.47636 84.48206,64.05906 			"/>
			<polygon fill="#A5FF45" points="191.59238,57.58619 193.20277,59.33421 192.95856,56.7706 			"/>
			<polygon fill="#A5FF45" points="201.72386,74.92793 195.30728,78.75834 194.21581,82.26717 185.99754,73.34651 
				182.39543,84.92642 174.17755,76.00562 170.57642,87.58535 162.36,78.66424 158.75723,90.24431 150.53726,81.324 
				146.93434,92.9041 136.44826,84.93634 133.59677,95.73663 126.60889,83.94244 115.18859,93.12301 109.20701,81.39948 
				97.78554,90.57986 91.80161,78.856 80.38028,88.0364 74.39686,76.31261 62.97444,85.49286 56.98984,73.76889 45.56874,82.94932 
				40.31342,72.65523 37.58433,80.36605 32.33316,77.05296 28.16201,80.40565 25.35747,74.91476 23.01987,81.5209 27.85689,90.9911 
				39.27828,81.81069 45.26361,93.53474 56.68472,84.35434 62.66931,96.07828 74.09174,86.89807 80.07516,98.62182 
				91.49648,89.44145 97.48042,101.16531 108.90188,91.98494 114.88347,103.70843 126.30376,94.5279 133.29164,106.32209 
				136.14313,95.52176 146.62921,103.48956 150.23213,91.90945 158.4521,100.82973 162.05489,89.24966 170.27129,98.17077 
				173.87242,86.59108 182.09032,95.51185 185.69241,83.93193 193.91068,92.85262 197.51294,81.27267 205.72955,90.19373 
				207.45575,84.64357 207.05446,84.73473 206.44073,78.3028 206.03468,79.60828 			"/>
			<polygon fill="#A5FF45" points="5.82373,84.37595 21.58719,85.56947 23.01987,81.5209 21.8684,79.26655 			"/>
			<polygon fill="#A5FF45" points="209.33092,78.61398 207.45575,84.64357 222.37175,81.25448 			"/>
			<polygon fill="#A5FF45" points="69.50267,69.90588 58.01041,62.65659 57.60739,63.79547 63.27956,74.90741 			"/>
			<polygon fill="#A5FF45" points="47.31395,71.20633 44.31831,69.31686 45.87386,72.36386 			"/>
			<polygon fill="#A5FF45" points="183.09914,73.05975 182.08049,73.66785 182.70056,74.34097 			"/>
			<polygon fill="#A5FF45" points="191.28725,68.17164 192.89766,69.91963 192.65344,67.35605 			"/>
			<polygon fill="#A5FF45" points="80.68541,77.45094 92.10673,68.27058 98.09066,79.99444 109.51213,70.81406 115.49372,82.53755 
				126.91401,73.35703 133.9019,85.15121 136.75339,74.35088 147.23947,82.31868 150.84239,70.73858 159.06236,79.65885 
				162.66513,68.07879 170.88153,76.99989 174.48268,65.4202 180.33118,71.7689 179.42938,62.26789 167.37326,69.46686 
				166.61095,61.44627 163.93176,58.53728 162.35208,59.48038 159.36748,69.07343 154.72424,64.03451 154.14825,64.37837 
				154.0455,63.29805 151.14752,60.15312 147.54459,71.73322 137.0585,63.76546 134.20702,74.56576 127.21914,62.77157 
				115.79884,71.95213 109.81726,60.22861 98.39579,69.40898 92.41186,57.68512 86.36372,62.54658 85.58258,64.75347 
				84.48206,64.05906 80.99053,66.86552 77.21938,59.47636 74.01112,57.45199 69.64209,69.79383 74.70199,65.7272 			"/>
		</g>
		<g>
			<polygon fill="#00B941" points="7.37418,45.59555 22.95722,47.66309 24.67353,43.68562 23.69166,41.36311 			"/>
			<polygon fill="#00B941" points="210.08012,51.07497 207.78098,57.01295 222.85237,54.44189 			"/>
			<polygon fill="#005C41" points="33.1863,50.31348 40.81379,44.87503 41.43623,46.34821 43.46891,41.63826 54.44714,49.59339 
				59.74904,37.30811 70.72673,45.26343 76.02969,32.97786 87.00497,40.9338 92.3074,28.64841 103.28759,36.603 108.59025,24.31755 
				119.57348,32.27137 127.03474,19.75708 129.63185,32.69007 142.13574,26.14345 142.40845,38.51909 154.91318,31.97288 
				155.18764,44.34931 167.69225,37.80302 167.96628,50.17925 180.46989,43.63253 180.74231,56.00804 193.24762,49.4621 
				193.52399,61.83938 195.06262,61.03395 198.14091,53.08554 201.71729,57.55068 206.0295,55.2935 206.16237,61.19313 
				207.78098,57.01295 207.3755,57.0821 207.0968,44.70377 194.59129,51.24961 194.31493,38.87233 181.80962,45.41827 
				181.5372,33.04276 169.03358,39.58951 168.75955,27.21329 156.25496,33.75954 155.98048,21.38311 143.47575,27.92932 
				143.20305,15.55371 130.69916,22.10033 128.10205,9.16731 120.64079,21.6816 109.65756,13.72778 104.3549,26.01326 
				93.3747,18.05864 88.07227,30.34406 77.097,22.38812 71.79404,34.67366 60.81635,26.71838 55.51444,39.00365 44.53622,31.04852 
				39.23424,43.33379 28.25821,35.37806 24.67353,43.68562 26.40665,47.78527 27.1909,45.96783 			"/>
			<polygon fill="#00B941" points="26.1236,56.55757 32.11899,60.90322 39.74649,55.46477 40.36892,56.93795 42.4016,52.22803 
				44.59082,53.81438 41.43623,46.34821 38.16693,53.92356 33.1863,50.31348 28.79811,53.44223 26.40665,47.78527 
				23.60622,54.27539 25.33934,58.37501 			"/>
			<polygon fill="#00B941" points="201.71729,57.55068 195.06262,61.03395 193.72443,64.48945 192.23804,62.63408 
				192.45668,72.42912 193.99539,71.62369 197.07361,63.67528 200.64998,68.14045 204.96219,65.88328 205.09506,71.78291 
				206.71367,67.60272 206.3082,67.67188 206.16237,61.19313 205.66452,62.47877 			"/>
			<polygon fill="#00B941" points="69.65942,55.85317 69.72871,55.69259 69.58212,55.79712 			"/>
			<polygon fill="#00B941" points="186.19917,55.0965 182.27148,65.23865 190.76343,60.79351 			"/>
			<polygon fill="#00B941" points="47.43216,55.87328 53.37983,60.18316 58.19892,49.01672 57.93254,48.38623 			"/>
			<polygon fill="#00B941" points="209.01282,61.66474 206.71367,67.60272 221.78506,65.03162 			"/>
			<polygon fill="#00B941" points="6.30687,56.18528 21.88992,58.25283 23.60622,54.27539 22.62435,51.95284 			"/>
			<polygon fill="#00B941" points="181.21504,65.79163 179.61325,63.79218 179.675,66.59778 			"/>
			<polygon fill="#00B941" points="200.64998,68.14045 193.99539,71.62369 192.65712,75.07922 191.17073,73.22382 
				191.38937,83.01888 192.92801,82.21346 196.0063,74.26505 199.58267,78.73019 203.89488,76.47301 204.02776,82.37264 
				205.64636,78.19246 205.24089,78.26161 205.09506,71.78291 204.59721,73.06854 			"/>
			<polygon fill="#00B941" points="31.05168,71.49299 38.67918,66.05453 39.30162,67.52772 41.33429,62.81776 43.52351,64.40411 
				40.36892,56.93795 37.09962,64.5133 32.11899,60.90322 27.7308,64.032 25.33934,58.37501 22.53892,64.86513 24.27203,68.96478 
				25.05629,67.14734 			"/>
			<polygon fill="#00B941" points="68.6614,66.28233 68.51473,66.38689 68.59212,66.44294 			"/>
			<polygon fill="#00B941" points="207.94551,72.25448 205.64636,78.19246 220.71776,75.6214 			"/>
			<polygon fill="#00B941" points="180.14774,76.38141 178.54594,74.38192 178.6077,77.18755 			"/>
			<polygon fill="#00B941" points="185.13187,65.68624 181.20416,75.82841 189.69612,71.38329 			"/>
			<polygon fill="#00B941" points="5.23956,66.77505 20.82261,68.8426 22.53892,64.86513 21.55704,62.54261 			"/>
			<polygon fill="#00B941" points="57.13161,59.60649 56.86523,58.976 46.36485,66.46302 52.31252,70.7729 			"/>
			<polygon fill="#00B941" points="58.19892,49.01672 63.03516,60.46458 69.58212,55.79712 58.68173,47.89788 			"/>
			<polygon fill="#00B941" points="182.27148,65.23865 181.21504,65.79163 181.78282,66.50042 			"/>
			<polygon fill="#00B941" points="47.43216,55.87328 44.59082,53.81438 45.91714,56.9535 			"/>
			<polygon fill="#00B941" points="85.8061,59.94519 90.17278,49.82792 101.15298,57.78251 106.45564,45.49706 117.43886,53.45088 
				124.90012,40.93659 127.49723,53.86958 140.00113,47.32296 140.27382,59.6986 152.77856,53.15239 153.02885,64.44065 
				153.65038,65.21611 161.56129,61.07465 162.31918,59.11784 163.1996,60.21701 165.55763,58.98254 165.6528,63.27997 
				169.84258,68.51113 174.25795,57.10736 179.61325,63.79218 179.40259,54.22227 166.89897,60.76902 166.62494,48.3928 
				154.12033,54.93904 153.84587,42.56262 141.34114,49.10883 141.06844,36.73322 128.56453,43.27984 125.96743,30.34682 
				118.50617,42.86111 107.52294,34.90729 102.22028,47.19277 91.24009,39.23815 85.93765,51.52357 74.96239,43.56763 
				69.72871,55.69259 75.05186,51.89757 76.93805,56.36319 83.82652,61.35666 			"/>
			<polygon fill="#00B941" points="190.76343,60.79351 192.23804,62.63408 192.18031,60.05183 			"/>
			<polygon fill="#00B941" points="199.58267,78.73019 192.92801,82.21346 191.58981,85.66896 184.06454,76.27602 
				179.64821,87.67993 172.12332,78.28687 167.70795,89.69064 160.18457,80.29735 155.76755,91.70138 148.24057,82.30869 
				143.82339,93.71275 133.97511,85.14921 130.36116,95.81345 124.26631,83.60925 112.25171,92.1767 107.15205,80.09896 
				95.13629,88.66616 90.03432,76.58795 78.01871,85.15518 72.91724,73.07708 60.90054,81.6441 55.79792,69.56573 
				43.78252,78.13301 39.30162,67.52772 36.03231,75.10307 31.05168,71.49299 26.66349,74.62173 24.27203,68.96478 
				21.47161,75.4549 25.59618,85.21151 37.61187,76.64428 42.71522,88.72275 54.73061,80.15551 59.83324,92.23383 
				71.84993,83.66685 76.9514,95.74492 88.96701,87.17772 94.06898,99.25594 106.08474,90.68874 111.1844,102.76644 
				123.19901,94.19903 129.29385,106.40322 132.90781,95.73895 142.75609,104.30252 147.17326,92.89846 154.70024,102.29112 
				159.11726,90.88709 166.64064,100.28038 171.05602,88.87664 178.5809,98.26967 182.99724,86.86575 190.52249,96.25873 
				194.939,84.85478 202.4626,94.24805 204.57906,88.78223 204.17357,88.85138 204.02776,82.37264 203.52991,83.65828 			"/>
			<polygon fill="#00B941" points="4.17226,77.36479 19.7553,79.43234 21.47161,75.4549 20.48973,73.13235 			"/>
			<polygon fill="#00B941" points="206.8782,82.84425 204.57906,88.78223 219.65045,86.21114 			"/>
			<polygon fill="#00B941" points="68.51473,66.38689 57.61442,58.48763 57.13161,59.60649 61.96785,71.05432 			"/>
			<polygon fill="#00B941" points="46.36485,66.46302 43.52351,64.40411 44.84983,67.54324 			"/>
			<polygon fill="#00B941" points="181.20416,75.82841 180.14774,76.38141 180.71552,77.09016 			"/>
			<polygon fill="#00B941" points="189.69612,71.38329 191.17073,73.22382 191.11301,70.64161 			"/>
			<polygon fill="#005C41" points="79.08602,74.56541 91.10163,65.99821 96.2036,78.07642 108.21936,69.50922 113.31902,81.58694 
				125.33362,73.01952 131.42847,85.22371 135.04242,74.55944 144.8907,83.12301 149.30788,71.71895 156.83485,81.11161 
				161.25188,69.70758 168.77527,79.10087 173.19063,67.69713 178.54594,74.38192 178.33528,64.81203 165.83167,71.35876 
				165.6528,63.27997 163.1996,60.21701 161.56129,61.07465 157.90216,70.52187 153.65038,65.21611 153.05302,65.52882 
				153.02885,64.44065 150.37518,61.12918 145.95801,72.53324 136.10973,63.9697 132.49577,74.63394 126.40093,62.42974 
				114.38633,70.9972 109.28667,58.91945 97.27091,67.48666 92.16894,55.40844 85.8061,59.94519 84.87035,62.11331 
				83.82652,61.35666 80.15333,63.97567 76.93805,56.36319 73.89508,54.15737 68.6614,66.28233 73.98455,62.48734 			"/>
		</g>
		<g opacity="0.2">
			<polygon points="6.98324,45.89338 22.69398,47.37649 24.22109,43.34964 23.1252,41.07177 			"/>
			<polygon points="210.31509,43.84675 208.29887,49.84871 223.27283,46.72869 			"/>
			<polygon points="33.06938,49.63864 40.44759,43.93711 41.14235,45.38199 42.95098,40.61355 54.33329,48.13379 59.0508,35.69597 
				70.43258,43.21641 75.15115,30.77825 86.53053,38.2994 91.24857,25.86145 102.63283,33.38107 107.3511,20.94305 
				118.73834,28.46179 125.60799,15.71581 128.83487,28.50651 141.04459,21.52019 141.91597,33.84162 154.12656,26.85567 
				154.99974,39.17782 167.21019,32.19181 168.08295,44.51377 180.29239,37.52736 181.16347,49.84866 193.37465,42.86296 
				194.24977,55.18589 195.75223,54.32635 198.4518,46.29228 202.25037,50.60907 206.46117,48.20025 206.87944,54.07393 
				208.29887,49.84871 207.89601,49.93263 207.01849,37.60874 194.80711,44.59434 193.93198,32.27142 181.72081,39.25711 
				180.84972,26.93581 168.64029,33.92226 167.76753,21.6003 155.55708,28.58628 154.6839,16.26413 142.47331,23.25008 
				141.60193,10.92868 129.3922,17.915 126.16534,5.12426 119.29568,17.87024 107.90843,10.3515 103.19016,22.78956 
				91.80592,15.2699 87.08787,27.70789 75.70849,20.18674 70.98992,32.62486 59.60814,25.10446 54.89062,37.54227 
				43.50832,30.02204 38.79073,42.45986 27.4106,34.93895 24.22109,43.34964 26.15545,47.37049 26.85326,45.53049 			"/>
			<polygon points="26.29592,56.12201 32.51204,60.23015 39.89025,54.52862 40.58501,55.9735 42.39364,51.2051 44.66343,52.70472 
				41.14235,45.38199 38.23339,53.05141 33.06938,49.63864 28.82461,52.91873 26.15545,47.37049 23.66375,53.94118 
				25.59811,57.96201 			"/>
			<polygon points="202.25037,50.60907 195.75223,54.32635 194.57866,57.81909 192.99995,56.02538 193.69243,65.7774 
				195.19496,64.91786 197.89447,56.88379 201.69302,61.20061 205.90382,58.7918 206.3221,64.66547 207.74153,60.44025 
				207.33867,60.52417 206.87944,54.07393 206.44284,55.37342 			"/>
			<polygon points="69.87524,53.80792 69.93688,53.64534 69.79508,53.75493 			"/>
			<polygon points="186.58598,48.7383 183.14154,58.98974 191.43375,54.24598 			"/>
			<polygon points="47.60935,54.65107 53.77594,58.72533 58.06388,47.42025 57.76654,46.80186 			"/>
			<polygon points="209.75775,54.43829 207.74153,60.44025 222.71548,57.32021 			"/>
			<polygon points="6.4259,56.48489 22.13664,57.96801 23.66375,53.94118 22.56787,51.66328 			"/>
			<polygon points="182.10995,59.57988 180.40865,57.64687 180.60614,60.44017 			"/>
			<polygon points="201.69302,61.20061 195.19496,64.91786 194.02133,68.41064 192.44261,66.61689 193.1351,76.36894 
				194.63754,75.50941 197.33713,67.47534 201.1357,71.79212 205.34648,69.38331 205.76476,75.25698 207.18419,71.03176 
				206.78134,71.11568 206.3221,64.66547 205.8855,65.96496 			"/>
			<polygon points="31.9547,70.82169 39.33291,65.12017 40.02766,66.56505 41.8363,61.79661 44.10609,63.29624 40.58501,55.9735 
				37.67605,63.64292 32.51204,60.23015 28.26727,63.51028 25.59811,57.96201 23.10641,64.5327 25.04077,68.55355 
				25.73858,66.71355 			"/>
			<polygon points="69.37955,64.23685 69.23767,64.34647 69.3179,64.39947 			"/>
			<polygon points="209.20041,65.02981 207.18419,71.03176 222.15816,67.91175 			"/>
			<polygon points="181.55261,70.17142 179.8513,68.23838 180.0488,71.03172 			"/>
			<polygon points="186.02864,59.32981 182.5842,69.58128 190.8764,64.83752 			"/>
			<polygon points="5.86856,67.07644 21.5793,68.55955 23.10641,64.5327 22.01052,62.25483 			"/>
			<polygon points="57.50653,58.01179 57.2092,57.39341 47.05201,65.24258 53.21861,69.31685 			"/>
			<polygon points="58.06388,47.42025 63.46208,58.6482 69.79508,53.75493 58.49347,46.28751 			"/>
			<polygon points="183.14154,58.98974 182.10995,59.57988 182.713,60.26511 			"/>
			<polygon points="47.60935,54.65107 44.66343,52.70472 46.14386,55.78354 			"/>
			<polygon points="86.24847,57.28742 90.1339,47.0445 101.51815,54.56413 106.23641,42.12611 117.62366,49.64484 
				124.49332,36.89886 127.72018,49.68957 139.92992,42.70325 140.80128,55.02468 153.01189,48.03873 153.80826,59.27749 
				154.46837,60.02717 162.19319,55.60752 162.85785,53.62962 163.79295,54.69226 166.09552,53.37487 166.39857,57.65346 
				170.84866,62.71082 174.72069,51.18419 180.40865,57.64687 179.73505,48.11887 167.5256,55.10532 166.65285,42.78336 
				154.44241,49.76933 153.56923,37.44719 141.35863,44.43314 140.48726,32.11174 128.27753,39.09806 125.05066,26.30732 
				118.18101,39.0533 106.79375,31.53456 102.07549,43.97261 90.69124,36.45296 85.97319,48.89095 74.59381,41.3698 
				69.93688,53.64534 75.08608,49.66673 77.19148,54.04659 84.33359,58.76715 			"/>
			<polygon points="191.43375,54.24598 192.99995,56.02538 192.81731,53.45448 			"/>
			<polygon points="201.1357,71.79212 194.63754,75.50941 193.46399,79.00215 185.47131,69.92136 181.59831,81.44817 
				173.606,72.36725 169.73399,83.89388 161.74316,74.81268 157.86951,86.33962 149.87512,77.25915 146.00131,88.78613 
				135.72154,80.61781 132.61662,91.37787 125.92102,79.44288 114.29914,88.42471 108.60661,76.57887 96.98355,85.56049 
				91.28867,73.71427 79.66576,82.69592 73.97141,70.84978 62.3474,79.83126 56.65187,67.98492 45.02918,76.9666 40.02766,66.56505 
				37.11871,74.23447 31.9547,70.82169 27.70993,74.10179 25.04077,68.55355 22.54907,75.12424 27.15259,84.69334 
				38.77557,75.71168 44.47184,87.55811 56.09452,78.57646 61.79006,90.42278 73.41406,81.44133 79.10843,93.28744 
				90.73133,84.30582 96.42621,96.15204 108.04926,87.17042 113.7418,99.01623 125.36369,90.03442 132.05928,101.96941 
				135.1642,91.20933 145.44397,99.37768 149.31778,87.85069 157.31216,96.93113 161.18584,85.40419 169.17665,94.48539 
				173.04868,82.95879 181.04099,92.03968 184.91397,80.51287 192.90665,89.5937 196.77979,78.06685 204.77083,87.14802 
				206.62686,81.62331 206.224,81.70723 205.76476,75.25698 205.32817,76.55647 			"/>
			<polygon points="5.31122,77.66795 21.02196,79.15106 22.54907,75.12424 21.45319,72.84634 			"/>
			<polygon points="208.64307,75.62135 206.62686,81.62331 221.60081,78.50327 			"/>
			<polygon points="69.23767,64.34647 57.93613,56.87903 57.50653,58.01179 62.90474,69.23972 			"/>
			<polygon points="47.05201,65.24258 44.10609,63.29624 45.58652,66.37505 			"/>
			<polygon points="182.5842,69.58128 181.55261,70.17142 182.15565,70.85662 			"/>
			<polygon points="190.8764,64.83752 192.44261,66.61689 192.25996,64.04602 			"/>
			<polygon points="80.22311,72.10438 91.84601,63.12276 97.54089,74.96898 109.16394,65.98736 114.85648,77.83317 
				126.47836,68.85137 133.17397,80.78635 136.27888,70.02627 146.55864,78.19462 150.43245,66.66763 158.42685,75.74808 
				162.30051,64.22113 170.29132,73.30233 174.16335,61.77573 179.8513,68.23838 179.1777,58.71041 166.96826,65.69683 
				166.39857,57.65346 163.79295,54.69226 162.19319,55.60752 158.98419,65.15656 154.46837,60.02717 153.88507,60.36088 
				153.80826,59.27749 150.98979,56.07609 147.11598,67.60307 136.83623,59.43476 133.73131,70.19481 127.0357,58.25982 
				115.41382,67.24165 109.72128,55.39581 98.09823,64.37743 92.40335,52.53121 86.24847,57.28742 85.41586,59.48246 
				84.33359,58.76715 80.78045,61.51286 77.19148,54.04659 74.03648,51.96131 69.37955,64.23685 74.52874,60.25827 			"/>
		</g>
	</g>
	<g opacity="0.52">
		<g>
			<polygon fill="#A5FF45" points="253.66743,61.12212 241.54405,61.03127 240.88997,65.50928 242.00897,67.85468 			"/>
			<polygon fill="#A5FF45" points="99.43424,82.79605 100.21165,76.14655 89.22673,80.93681 			"/>
			<polygon fill="#A5FF45" points="233.3765,59.59145 228.48732,66.43127 227.77782,64.94353 227.00305,70.24623 
				217.40947,63.24661 215.38869,77.07799 205.79547,70.0781 203.77393,83.90994 194.18245,76.90906 192.16129,90.74063 
				182.5663,83.74185 180.54497,97.57352 170.94781,90.57599 167.33058,104.94496 163.2709,91.49477 154.87227,100.17937 
				152.66129,87.00843 144.26193,95.69271 142.04948,82.52116 133.65025,91.2055 131.43816,78.03411 123.03975,86.71878 
				120.82899,73.54794 112.42918,82.232 110.21514,69.05981 109.18164,70.12831 108.14047,79.02924 104.71169,74.74937 
				101.81516,77.74383 100.75897,71.46546 100.21165,76.14655 100.50719,76.01768 102.72315,89.1907 111.12314,80.50671 
				113.33717,93.6789 121.73698,84.99484 123.94775,98.16568 132.34615,89.48097 134.55826,102.65236 142.95747,93.96806 
				145.16994,107.13961 153.56927,98.45533 155.78027,111.62624 164.17891,102.94164 168.23859,116.39186 171.85582,102.02289 
				181.45297,109.02042 183.47429,95.18872 193.06929,102.18753 195.09045,88.35592 204.68193,95.3568 206.70348,81.525 
				216.29668,88.52485 218.31747,74.69347 227.91106,81.69309 229.9319,67.86171 239.52391,74.86227 240.88997,65.50928 
				238.91479,61.36921 238.61592,63.41536 			"/>
			<polygon fill="#A5FF45" points="237.70792,51.9685 232.46851,48.14458 227.57932,54.98441 226.86981,53.49666 
				226.09506,58.79933 224.18196,57.40352 227.77782,64.94353 229.0239,56.41481 233.3765,59.59145 236.18932,55.65649 
				238.91479,61.36921 239.98198,54.06238 238.00681,49.92234 			"/>
			<polygon fill="#A5FF45" points="104.71169,74.74937 109.18164,70.12831 109.63423,66.25872 111.05922,68.03706 
				109.30714,57.61294 108.27359,58.68145 107.23248,67.58237 103.80369,63.30247 100.90716,66.29693 99.85098,60.01856 
				99.30365,64.69965 99.59919,64.57079 100.75897,71.46546 100.92734,70.02576 			"/>
			<polygon fill="#A5FF45" points="204.88748,58.63123 204.86108,58.81202 204.95505,58.68056 			"/>
			<polygon fill="#A5FF45" points="116.84857,75.26167 118.17694,63.90414 112.4729,69.8012 			"/>
			<polygon fill="#A5FF45" points="221.69899,55.59192 216.50148,51.79971 214.66469,64.37144 214.96834,65.00818 			"/>
			<polygon fill="#A5FF45" points="98.52625,71.34915 99.30365,64.69965 88.31873,69.48994 			"/>
			<polygon fill="#A5FF45" points="252.75943,49.67525 240.63606,49.5844 239.98198,54.06238 241.10098,56.40781 			"/>
			<polygon fill="#A5FF45" points="118.88654,63.17052 120.42219,65.08697 119.92099,62.10107 			"/>
			<polygon fill="#A5FF45" points="103.80369,63.30247 108.27359,58.68145 108.72623,54.81182 110.15122,56.59019 
				108.39915,46.16604 107.36565,47.23454 106.32448,56.13548 102.89569,51.8556 99.99916,54.85006 98.94298,48.57169 
				98.39565,53.25278 98.69119,53.12392 99.85098,60.01856 100.01934,58.57886 			"/>
			<polygon fill="#A5FF45" points="231.5605,36.69768 226.67133,43.53751 225.96182,42.04976 225.18706,47.35246 
				223.27397,45.95665 226.86981,53.49666 228.11591,44.96794 232.46851,48.14458 235.28131,44.20958 238.00681,49.92234 
				239.07397,42.61551 237.0988,38.47544 236.79993,40.5216 			"/>
			<polygon fill="#A5FF45" points="203.95309,47.36515 204.0471,47.23365 203.97948,47.18433 			"/>
			<polygon fill="#A5FF45" points="97.61825,59.90228 98.39565,53.25278 87.41074,58.04303 			"/>
			<polygon fill="#A5FF45" points="117.97855,51.72362 119.51419,53.64011 119.01299,50.65417 			"/>
			<polygon fill="#A5FF45" points="115.94057,63.8148 117.26894,52.45724 111.5649,58.3543 			"/>
			<polygon fill="#A5FF45" points="251.85144,38.22835 239.72806,38.1375 239.07397,42.61551 240.19298,44.96091 			"/>
			<polygon fill="#A5FF45" points="213.75668,52.92455 214.06033,53.56128 220.791,44.14505 215.59348,40.35284 			"/>
			<polygon fill="#A5FF45" points="214.66469,64.37144 209.1517,52.81028 204.95505,58.68056 214.48068,65.63108 			"/>
			<polygon fill="#A5FF45" points="118.17694,63.90414 118.88654,63.17052 118.34222,62.49116 			"/>
			<polygon fill="#A5FF45" points="221.69899,55.59192 224.18196,57.40352 222.6701,54.23335 			"/>
			<polygon fill="#A5FF45" points="192.00978,56.45627 190.34529,67.84686 180.75031,60.84809 178.72897,74.67976 
				169.13182,67.68222 165.51459,82.05119 161.45491,68.60101 153.05627,77.28561 150.84529,64.11466 142.44594,72.79894 
				140.42804,60.78546 139.83224,60.04223 134.51855,65.53632 134.26221,67.72763 133.41812,66.67408 131.83426,68.31173 
				131.06613,63.73819 127.04922,58.72406 125.55629,71.49429 120.42219,65.08697 122.13175,75.27191 130.53015,66.5872 
				132.74226,79.75859 141.14148,71.0743 143.35394,84.24584 151.75328,75.56156 153.96428,88.73248 162.36292,80.04787 
				166.42259,93.49809 170.03983,79.12912 179.63698,86.12666 181.65829,72.29495 191.2533,79.29376 193.27446,65.46216 
				202.86594,72.46304 204.86108,58.81202 201.4489,63.58501 199.29865,59.07515 193.27867,54.68111 			"/>
			<polygon fill="#A5FF45" points="112.4729,69.8012 111.05922,68.03706 111.52118,70.78514 			"/>
			<polygon fill="#A5FF45" points="102.89569,51.8556 107.36565,47.23454 107.81824,43.36495 115.03258,52.3679 116.52622,39.59739 
				123.7403,48.60052 125.23323,35.83029 132.4462,44.83386 133.94034,32.06314 141.15594,41.06559 142.65019,28.29481 
				151.48753,36.09717 152.49399,24.22503 159.08162,36.42251 166.78276,25.6476 172.59706,37.84524 180.29912,27.07044 
				186.11525,39.26828 193.81718,28.49346 199.6329,40.69125 207.33571,29.91652 213.15234,42.11441 220.85411,31.33959 
				225.96182,42.04976 227.2079,33.52104 231.5605,36.69768 234.37332,32.76272 237.0988,38.47544 238.16599,31.16861 
				233.46532,21.31582 225.76332,32.09064 219.94612,19.89272 212.24434,30.66751 206.4277,18.46965 198.72491,29.24434 
				192.90918,17.04659 185.20724,27.82137 179.39111,15.62354 171.68906,26.39834 165.87477,14.20073 158.17363,24.97561 
				151.586,12.77813 150.57954,24.6503 141.74219,16.84791 140.24794,29.61868 133.03235,20.61628 131.53821,33.387 
				124.32523,24.38342 122.8323,37.15361 115.61823,28.15052 114.12458,40.92103 106.91024,31.91805 105.41649,44.68861 
				98.20335,35.6851 97.48766,41.80588 97.7832,41.67702 98.94298,48.57169 99.11134,47.132 			"/>
			<polygon fill="#A5FF45" points="250.94344,26.78149 238.82007,26.69063 238.16599,31.16861 239.28499,33.51405 			"/>
			<polygon fill="#A5FF45" points="96.71025,48.45538 97.48766,41.80588 86.50274,46.59617 			"/>
			<polygon fill="#A5FF45" points="204.0471,47.23365 213.57269,54.18422 213.75668,52.92455 208.2437,41.36342 			"/>
			<polygon fill="#A5FF45" points="220.791,44.14505 223.27397,45.95665 221.76212,42.78649 			"/>
			<polygon fill="#A5FF45" points="117.26894,52.45724 117.97855,51.72362 117.43422,51.04429 			"/>
			<polygon fill="#A5FF45" points="111.5649,58.3543 110.15122,56.59019 110.61318,59.33824 			"/>
			<polygon fill="#A5FF45" points="194.72517,39.94036 187.02324,50.71514 181.20711,38.51731 173.50505,49.29211 
				167.69077,37.0945 159.98962,47.86937 153.40199,35.67189 152.39554,47.54407 143.55818,39.74168 142.06393,52.51245 
				134.84834,43.51004 133.3542,56.28077 126.14123,47.27719 124.64829,60.04738 119.51419,53.64011 121.22375,63.82501 
				129.62216,55.14034 131.06613,63.73819 133.41812,66.67408 134.51855,65.53632 135.75633,54.95691 139.83224,60.04223 
				140.23349,59.6274 140.42804,60.78546 142.97194,63.95935 144.46619,51.18858 153.30353,58.99094 154.30998,47.11879 
				160.89761,59.31628 168.59875,48.54137 174.41306,60.73901 182.11511,49.96421 187.93124,62.16204 192.00978,56.45627 
				192.36646,54.01529 193.27867,54.68111 195.63318,51.38723 199.29865,59.07515 201.95793,61.01617 203.95309,47.36515 
				200.54091,52.13811 			"/>
		</g>
		<g>
			<polygon fill="#00B941" points="253.94077,68.75071 241.86053,67.70291 240.98297,72.12571 241.98027,74.55758 			"/>
			<polygon fill="#00B941" points="99.10644,78.23213 100.21632,71.64931 89.02505,75.56859 			"/>
			<polygon fill="#005C41" points="233.79149,65.61949 228.57332,72.0679 227.94101,70.52533 226.90161,75.76264 
				217.69113,68.01129 214.98006,81.67211 205.76996,73.92052 203.05811,87.58174 193.84979,79.82929 191.13832,93.49027 
				181.92641,85.73965 179.21475,99.40072 170.00063,91.65117 165.6711,105.72313 162.30185,91.9632 153.49246,99.97788 
				151.95197,86.64291 143.14189,94.65721 141.59996,81.32153 132.78999,89.33589 131.24841,76.00039 122.43925,84.01516 
				120.89898,70.68031 112.08845,78.69436 110.54498,65.35789 109.46094,66.34396 107.97472,75.1556 104.77242,70.60847 
				101.73427,73.37189 100.9977,67.01516 100.21632,71.64931 100.51741,71.54388 102.06277,84.8813 110.87347,76.86734 
				112.41695,90.2038 121.22747,82.18975 122.76775,95.5246 131.5769,87.5098 133.1185,100.8453 141.92845,92.83097 
				143.47038,106.16666 152.28046,98.15235 153.82097,111.4873 162.63036,103.47262 165.99959,117.23257 170.32912,103.16061 
				179.54326,110.91016 182.2549,97.24906 191.46681,104.99972 194.17828,91.3387 203.3866,99.09115 206.09846,85.42996 
				215.30855,93.18152 218.01964,79.5207 227.2301,87.27206 229.94125,73.61123 239.15012,81.3634 240.98297,72.12571 
				239.22261,67.83303 238.82161,69.85396 			"/>
			<polygon fill="#00B941" points="238.49312,58.34454 233.463,54.11008 228.24483,60.55849 227.61252,59.01592 226.5731,64.2532 
				224.73642,62.70749 227.94101,70.52533 229.61275,62.10179 233.79149,65.61949 236.79356,61.90971 239.22261,67.83303 
				240.65446,60.61627 238.89412,56.32362 			"/>
			<polygon fill="#00B941" points="104.77242,70.60847 109.46094,66.34396 110.10701,62.51319 111.43788,64.4026 
				110.21648,53.84849 109.13238,54.83456 107.64622,63.64619 104.44392,59.09903 101.40577,61.86245 100.6692,55.50571 
				99.88783,60.13986 100.18891,60.03443 100.9977,67.01516 101.23805,65.5899 			"/>
			<polygon fill="#00B941" points="205.44147,62.41111 205.40605,62.58967 205.50633,62.46573 			"/>
			<polygon fill="#00B941" points="116.84489,72.07845 118.74115,60.83485 112.7582,66.27693 			"/>
			<polygon fill="#00B941" points="222.3526,60.70133 217.36264,56.50184 214.89842,68.91856 215.16904,69.57875 			"/>
			<polygon fill="#00B941" points="98.77794,66.72269 99.88783,60.13986 88.69656,64.05917 			"/>
			<polygon fill="#00B941" points="253.61227,57.2413 241.53203,56.1935 240.65446,60.61627 241.65176,63.04816 			"/>
			<polygon fill="#00B941" points="119.48545,60.15784 120.91967,62.19398 120.57048,59.1709 			"/>
			<polygon fill="#00B941" points="104.44392,59.09903 109.13238,54.83456 109.77851,51.00374 111.10939,52.89319 
				109.88798,42.33904 108.80394,43.3251 107.31772,52.13675 104.11543,47.58962 101.07728,50.35304 100.34071,43.9963 
				99.55933,48.63045 99.86041,48.52502 100.6692,55.50571 100.90955,54.08046 			"/>
			<polygon fill="#00B941" points="233.13449,42.60064 227.91632,49.04905 227.28401,47.50648 226.24461,52.74379 
				224.40791,51.19807 227.61252,59.01592 229.28426,50.59238 233.463,54.11008 236.46507,50.40026 238.89412,56.32362 
				240.32597,49.10686 238.56563,44.81417 238.16461,46.8351 			"/>
			<polygon fill="#00B941" points="205.07755,51.08026 205.17789,50.95628 205.11296,50.90166 			"/>
			<polygon fill="#00B941" points="98.44944,55.21328 99.55933,48.63045 88.36806,52.54973 			"/>
			<polygon fill="#00B941" points="119.15695,48.64839 120.59117,50.68457 120.24198,47.66145 			"/>
			<polygon fill="#00B941" points="116.5164,60.56904 118.41265,49.32541 112.4297,54.76748 			"/>
			<polygon fill="#00B941" points="253.28377,45.73185 241.20354,44.68405 240.32597,49.10686 241.32327,51.53872 			"/>
			<polygon fill="#00B941" points="214.56992,57.40911 214.84053,58.06931 222.02409,49.19192 217.03413,44.99244 			"/>
			<polygon fill="#00B941" points="214.89842,68.91856 209.98534,56.93142 205.50633,62.46573 214.65155,70.16267 			"/>
			<polygon fill="#00B941" points="118.74115,60.83485 119.48545,60.15784 118.97707,59.43604 			"/>
			<polygon fill="#00B941" points="222.3526,60.70133 224.73642,62.70749 223.38905,59.42051 			"/>
			<polygon fill="#00B941" points="192.71429,59.22131 190.48132,70.47142 181.26941,62.7208 178.55777,76.38187 
				169.34363,68.63231 165.0141,82.70428 161.64485,68.94435 152.83546,76.95903 151.29497,63.62405 142.48489,71.63836 
				141.07857,59.47517 140.52211,58.6855 134.94856,63.75574 134.58264,65.92506 133.79433,64.80573 132.133,66.31703 
				131.5977,61.68651 127.84614,56.35928 125.71469,69.00146 120.91967,62.19398 122.11076,72.50574 130.91991,64.49094 
				132.4615,77.82645 141.27145,69.81211 142.81339,83.1478 151.62346,75.1335 153.16397,88.46844 161.97336,80.45376 
				165.34261,94.21372 169.67212,80.14175 178.88626,87.89131 181.5979,74.23021 190.80981,81.98087 193.52129,68.31984 
				202.7296,76.0723 205.40605,62.58967 201.7643,67.08949 199.84804,62.41348 194.06857,57.54773 			"/>
			<polygon fill="#00B941" points="112.7582,66.27693 111.43788,64.4026 111.75995,67.18495 			"/>
			<polygon fill="#00B941" points="104.11543,47.58962 108.80394,43.3251 109.45001,39.49433 116.1879,49.0596 118.32008,36.41719 
				125.05769,45.98261 127.18915,33.34043 133.92564,42.90621 136.05832,30.26363 142.7975,39.82849 144.93028,27.18586 
				153.3465,35.67962 154.94778,23.8964 160.90004,36.60418 169.11943,26.44579 174.30081,39.09269 182.52112,28.93449 
				187.70432,41.58171 195.9245,31.42349 201.1073,44.07064 209.32834,33.91256 214.51204,46.5599 222.73206,36.40165 
				227.28401,47.50648 228.95575,39.08293 233.13449,42.60064 236.13658,38.89085 238.56563,44.81417 239.99747,37.59741 
				235.80807,27.38141 227.58783,37.53963 222.40356,24.89224 214.18353,35.05045 208.99985,22.40315 200.77879,32.56119 
				195.59601,19.91408 187.37581,30.07227 182.19263,17.42504 173.97232,27.58324 168.79094,14.93638 160.57153,25.09473 
				154.61928,12.38695 153.01799,24.17021 144.60179,15.67641 142.46899,28.31904 135.72983,18.75422 133.59715,31.3968 
				126.86065,21.83102 124.72919,34.47317 117.99158,24.90778 115.85941,37.55019 109.12151,27.98488 106.98923,40.62734 
				100.25256,31.0616 99.23083,37.121 99.53191,37.01558 100.34071,43.9963 100.58105,42.57104 			"/>
			<polygon fill="#00B941" points="252.95528,34.22244 240.87505,33.17464 239.99747,37.59741 240.99477,40.02931 			"/>
			<polygon fill="#00B941" points="98.12094,43.70383 99.23083,37.121 88.03956,41.04032 			"/>
			<polygon fill="#00B941" points="205.17789,50.95628 214.32306,58.65325 214.56992,57.40911 209.65683,45.42201 			"/>
			<polygon fill="#00B941" points="222.02409,49.19192 224.40791,51.19807 223.06056,47.91109 			"/>
			<polygon fill="#00B941" points="118.41265,49.32541 119.15695,48.64839 118.64857,47.92663 			"/>
			<polygon fill="#00B941" points="112.4297,54.76748 111.10939,52.89319 111.43145,55.67551 			"/>
			<polygon fill="#005C41" points="196.25301,42.93293 188.03281,53.09113 182.84962,40.4439 174.6293,50.6021 169.44794,37.95524 
				161.22853,48.11359 155.27628,35.40581 153.67499,47.18906 145.25879,38.69527 143.12599,51.3379 136.38683,41.77307 
				134.25414,54.41566 127.51764,44.84987 125.38619,57.49202 120.59117,50.68457 121.78226,60.9963 130.59142,52.98153 
				131.5977,61.68651 133.79433,64.80573 134.94856,63.75574 136.71532,53.28248 140.52211,58.6855 140.94296,58.30267 
				141.07857,59.47517 143.45448,62.84734 145.58728,50.20472 154.00349,58.69847 155.60477,46.91525 161.55702,59.62303 
				169.77643,49.46465 174.95781,62.11154 183.17812,51.95334 188.3613,64.60057 192.71429,59.22131 193.19279,56.81043 
				194.06857,57.54773 196.5815,54.44234 199.84804,62.41348 202.40111,64.56289 205.07755,51.08026 201.43579,55.58005 			"/>
		</g>
		<g opacity="0.2">
			<polygon points="254.20616,68.3996 242.09171,67.99221 241.36343,72.45393 242.44267,74.82896 			"/>
			<polygon points="99.70621,86.05061 100.59392,79.42022 89.53591,83.92453 			"/>
			<polygon points="233.95314,66.3389 228.953,73.05228 228.26871,71.54575 227.40608,76.82916 217.93498,69.57784 
				215.685,83.35889 206.21428,76.10731 203.96353,89.88882 194.49455,82.63628 192.24419,96.41753 182.77167,89.16701 
				180.52113,102.94835 171.04643,95.69901 167.19203,109.97608 163.35892,96.41753 154.82072,104.88439 152.83052,91.65339 
				144.29163,100.11991 142.29996,86.88828 133.7612,95.35485 131.76988,82.12339 123.23193,90.59032 121.24194,77.35944 
				112.70259,85.82574 110.70936,72.59341 109.65868,73.63511 108.46987,82.51044 105.11448,78.14029 102.16984,81.05965 
				101.21889,74.7526 100.59392,79.42022 100.89142,79.29906 102.88657,92.53225 111.42609,84.06603 113.41933,97.29836 
				121.95868,88.83207 123.94866,102.06296 132.48662,93.59599 134.47794,106.82745 143.01671,98.36091 145.00836,111.59254 
				153.54726,103.12602 155.53746,116.35699 164.07565,107.89013 167.90877,121.44872 171.76317,107.17164 181.23787,114.42097 
				183.4884,100.6396 192.96092,107.89016 195.21129,94.10887 204.68027,101.36141 206.93102,87.57994 216.40173,94.83149 
				218.65172,81.05043 228.12282,88.30175 230.37286,74.52068 239.84238,81.77291 241.36343,72.45393 239.45844,68.26157 
				239.12564,70.30028 			"/>
			<polygon points="238.40891,58.82769 233.2364,54.8663 228.23625,61.57969 227.55197,60.07315 226.68935,65.35653 
				224.80067,63.91053 228.26871,71.54575 229.65613,63.04806 233.95314,66.3389 236.82979,62.47668 239.45844,68.26157 
				240.6467,60.9813 238.7417,56.78897 			"/>
			<polygon points="105.11448,78.14029 109.65868,73.63511 110.17547,69.77666 111.56996,71.59251 109.99262,61.12081 
				108.94189,62.16253 107.75314,71.03784 104.39774,66.66766 101.45309,69.58702 100.50215,63.27997 99.87717,67.94759 
				100.17468,67.82643 101.21889,74.7526 101.41114,73.31705 			"/>
			<polygon points="205.49754,64.63471 205.46815,64.81484 205.56424,64.68581 			"/>
			<polygon points="117.23541,78.96954 118.75218,67.64469 112.95338,73.39388 			"/>
			<polygon points="222.34941,62.03378 217.21825,58.1052 215.17314,70.6312 215.46599,71.27598 			"/>
			<polygon points="98.98946,74.57797 99.87717,67.94759 88.81918,72.45193 			"/>
			<polygon points="253.48943,56.927 241.37497,56.51962 240.6467,60.9813 241.72594,63.35637 			"/>
			<polygon points="119.47357,66.92947 120.97635,68.88635 120.52521,65.88684 			"/>
			<polygon points="104.39774,66.66766 108.94189,62.16253 109.45873,58.30402 110.85323,60.11992 109.27589,49.64818 
				108.22521,50.68989 107.03639,59.56521 103.681,55.19506 100.73636,58.11443 99.78542,51.80738 99.16044,56.475 
				99.45795,56.35383 100.50215,63.27997 100.6944,61.84441 			"/>
			<polygon points="232.51967,43.39367 227.51952,50.10706 226.83524,48.60052 225.97261,53.88393 224.08394,52.43793 
				227.55197,60.07315 228.93939,51.57546 233.2364,54.8663 236.11305,51.00405 238.7417,56.78897 239.92996,49.50871 
				238.02496,45.31635 237.69217,47.35506 			"/>
			<polygon points="204.75142,53.34225 204.84756,53.21318 204.78081,53.16208 			"/>
			<polygon points="98.27273,63.10538 99.16044,56.475 88.10244,60.97931 			"/>
			<polygon points="118.75684,55.45685 120.25961,57.41376 119.80846,54.41421 			"/>
			<polygon points="116.51868,67.49695 118.03544,56.17207 112.23664,61.92125 			"/>
			<polygon points="252.77269,45.45437 240.65823,45.04699 239.92996,49.50871 241.0092,51.88374 			"/>
			<polygon points="214.45641,59.15858 214.74925,59.80335 221.63268,50.56119 216.50151,46.63261 			"/>
			<polygon points="215.17314,70.6312 209.85612,58.92407 205.56424,64.68581 214.96826,71.88626 			"/>
			<polygon points="118.75218,67.64469 119.47357,66.92947 118.9409,66.23578 			"/>
			<polygon points="222.34941,62.03378 224.80067,63.91053 223.34256,60.70033 			"/>
			<polygon points="192.66396,62.12315 190.81071,73.47231 181.3382,66.22178 179.08766,80.00312 169.61296,72.75378 
				165.75856,87.03086 161.92545,73.47231 153.38725,81.93916 151.39703,68.70817 142.85815,77.17469 141.04163,65.10641 
				140.45859,64.34749 135.05661,69.70381 134.7639,71.88882 133.9379,70.81304 132.32771,72.40963 131.63626,67.81522 
				127.70534,62.69534 126.00056,75.42884 120.97635,68.88635 122.51519,79.11773 131.05315,70.65076 133.04445,83.88223 
				141.58322,75.41568 143.57489,88.64732 152.11378,80.18079 154.10399,93.41176 162.64218,84.9449 166.4753,98.50349 
				170.3297,84.22641 179.8044,91.47575 182.05493,77.69437 191.52745,84.94493 193.77782,71.16365 203.2468,78.41618 
				205.46815,64.81484 201.97853,69.4996 199.90472,64.93279 193.96165,60.38081 			"/>
			<polygon points="112.95338,73.39388 111.56996,71.59251 111.98586,74.35314 			"/>
			<polygon points="103.681,55.19506 108.22521,50.68989 108.742,46.83143 115.80193,56.02432 117.50742,43.29055 
				124.56709,52.48362 126.27186,39.75011 133.33043,48.9436 135.03641,36.20963 142.09763,45.40205 143.80371,32.66803 
				152.50568,40.70249 153.7093,28.85453 160.08969,41.22616 167.96564,30.65041 173.57317,43.00201 181.45001,32.42639 
				187.05937,44.77822 194.93611,34.20259 200.54506,46.55437 208.42265,35.97884 214.03252,48.33076 221.90909,37.75511 
				226.83524,48.60052 228.22266,40.10283 232.51967,43.39367 235.39632,39.53145 238.02496,45.31635 239.21321,38.03608 
				234.67958,28.05882 226.80278,38.63446 221.19235,26.28251 213.31578,36.85813 207.70592,24.50625 199.82832,35.08174 
				194.21938,22.73 186.34264,33.3056 180.73328,20.95376 172.85643,31.52938 167.2489,19.17781 159.37296,29.75353 
				152.99255,17.3819 151.78894,29.2299 143.08698,21.1954 141.38089,33.92942 134.31967,24.73703 132.61369,37.471 
				125.55512,28.27752 123.85036,41.01099 116.79069,31.81796 115.0852,44.55173 108.02525,35.3588 106.31966,48.09262 
				99.26093,38.89919 98.4437,45.00237 98.74121,44.8812 99.78542,51.80738 99.97766,50.37182 			"/>
			<polygon points="252.05595,33.98178 239.9415,33.57439 239.21321,38.03608 240.29247,40.41114 			"/>
			<polygon points="97.55599,51.63275 98.4437,45.00237 87.3857,49.50671 			"/>
			<polygon points="204.84756,53.21318 214.25153,60.41367 214.45641,59.15858 209.13939,47.45147 			"/>
			<polygon points="221.63268,50.56119 224.08394,52.43793 222.62582,49.22774 			"/>
			<polygon points="118.03544,56.17207 118.75684,55.45685 118.22416,54.76318 			"/>
			<polygon points="112.23664,61.92125 110.85323,60.11992 111.26912,62.88051 			"/>
			<polygon points="195.65285,45.67522 187.77611,56.25082 182.16675,43.89899 174.2899,54.4746 168.68237,42.12304 
				160.80643,52.69875 154.42604,40.32713 153.22241,52.17512 144.52045,44.14062 142.81436,56.87464 135.75314,47.68225 
				134.04716,60.41623 126.9886,51.22274 125.28383,63.95621 120.25961,57.41376 121.79845,67.6451 130.33641,59.17816 
				131.63626,67.81522 133.9379,70.81304 135.05661,69.70381 136.46988,59.15485 140.45859,64.34749 140.86649,63.94305 
				141.04163,65.10641 143.5311,68.34727 145.23718,55.61325 153.93915,63.64772 155.14278,51.79976 161.52316,64.17138 
				169.39911,53.59563 175.00664,65.94723 182.88348,55.37162 188.49284,67.72345 192.66396,62.12315 193.06108,59.69105 
				193.96165,60.38081 196.36958,57.14782 199.90472,64.93279 202.53006,66.94359 204.75142,53.34225 201.2618,58.02697 			"/>
		</g>
	</g>
</g>
</svg>
