<?xml version="1.0" encoding="utf-8"?>
<!-- Generator: Adobe Illustrator 21.0.0, SVG Export Plug-In . SVG Version: 6.00 Build 0)  -->
<svg version="1.1" id="Layer_1" xmlns="http://www.w3.org/2000/svg" xmlns:xlink="http://www.w3.org/1999/xlink" x="0px" y="0px"
	 viewBox="0 0 206.18419 135.61534" enable-background="new 0 0 206.18419 135.61534" xml:space="preserve">
<g>
	
		<ellipse transform="matrix(0.98837 -0.15206 0.15206 0.98837 -9.11612 16.46595)" fill="#420049" cx="103.0995" cy="67.83593" rx="103.80111" ry="66.73989"/>
	<g>
		<defs>
			
				<ellipse id="SVGID_17_" transform="matrix(0.98837 -0.15206 0.15206 0.98837 -9.11612 16.46595)" cx="103.0995" cy="67.83593" rx="98.57649" ry="64.82015"/>
		</defs>
		<clipPath id="SVGID_1_">
			<use xlink:href="#SVGID_17_"  overflow="visible"/>
		</clipPath>
		<g opacity="0.73" clip-path="url(#SVGID_1_)">
			<path d="M166.48398,70.72558c20.33281,12.48764,42.05688,12.10165,61.64784,3.63306
				c1.4126-0.23068,3.53151-0.57671,4.76575-1.83213c0.7063-0.11534,2.11891-0.34602,3.53151-0.5767
				c3.88109-2.74154,7.76219-5.48307,12.52794-7.31519c-21.6814,25.67188-56.1189,28.134-84.94153,8.60181
				c17.68596,13.97375,36.41359,17.2387,55.31247,17.31407c7.24135-0.12866,13.7693-4.3563,21.36737-2.43547
				c-20.63263,19.1774-50.13312,16.61782-74.71796-3.60641c-1.7693-1.81881-4.95122-3.40693-6.89888-6.25048
				c6.90599,10.4648,15.92377,16.36926,23.88565,24.55389c7.07011,3.06091,13.96899,9.31139,21.21747,13.39705
				c1.7693,1.8188,4.77286,2.38219,4.60161,5.57176c-1.05589,2.28017-3.88109,2.74153-6,3.08755
				c-5.3008-1.2421-9.5386-0.55006-14.31146-2.93224c-4.77287-2.38219-8.83943-4.87971-12.90599-7.37724
				c-2.65396-2.72821-6.01422-5.34108-8.84654-9.09403c-0.88464-0.90941-1.24135-2.95889-2.12601-3.8683
				c-0.7063,0.11534-1.59096-0.79406-1.59096-0.79406c-5.84297-8.53065-8.86076-17.52267-9.23169-28.00079
				c6.54929,8.41531,12.04266,19.11079,19.8262,26.27068c0.88466,0.9094,0.3567,2.04949,1.24136,2.95889
				c0.7063-0.11534,1.59094,0.79406,1.59094,0.79406c3.36737,6.82719,9.38161,12.16827,9.39583,20.5969
				c-4.04523,10.14542-14.29726,5.49638-21.72408,0.38599c-2.47562-1.70347-4.60162-5.57176-7.07724-7.27522
				c-1.7693-1.81881-3.01067-4.7777-4.07367-6.71185c-4.43037-8.76134-6.03555-17.98403-5.70018-28.57749
				c0.17123-3.18958,0.34248-6.37915,1.39838-8.65932c0.53506,3.07423,1.59807,5.00838,2.83943,7.96727
				c0.17834,1.02474,0.3567,2.04949,0.53505,3.07423c0.17836,1.02474,1.94766,2.84355,2.12602,3.86829
				c1.95476,7.05787,8.86786,21.73698,0.9202,21.98099c-7.7693,1.26875-14.31859-7.14657-20.86786-15.56187
				c-0.17836-1.02474-0.17836-1.02474-0.3567-2.04949c-4.60162-5.57176-8.32571-14.44843-6.74897-22.083
				c0.52795-1.14009,1.0559-2.28017,1.58384-3.42026c4.2307-4.90636,10.41615-2.75485,15.89532-0.48801
				c2.48982,10.1321,3.92377,22.54436-2.42583,27.79675c-5.11536,3.99696-12.00711,1.96079-17.84299-2.35555
				c-1.7693-1.81881-3.53861-3.63761-4.60162-5.57176c-1.06301-1.93414-1.59807-5.00838-1.24847-7.17321
				c1.05589-2.28017,0.52084-5.3544,2.46139-6.72517c2.64685-1.48611,5.11534-3.99696,8.46849-5.5984
				c2.82521-0.46136,6.3567-1.03806,9.18192-1.49943c-2.62552,14.12906-3.13213,27.91209-7.17024,42.27183
				c-0.52795,1.14008-1.41261,0.23068-1.59096-0.79406c-3.7383-17.30531-0.23524-34.73928,6.10013-48.42029
				c-10.05235,9.01866-22.58029,16.33385-36.54217,11.23677c-1.59096-0.79407-3.18191-1.58813-4.24492-3.52227
				c-0.88465-0.90941-1.94765-2.84356-2.12601-3.8683c2.09757-12.98897,13.93344-11.76019,21.70274-13.02894
				c3.70985,0.44804,6.71341,1.01142,10.60162,2.48421c2.29726,0.67872,4.06656,2.49753,6.36382,3.17625
				c-10.06656,0.59003-18.89176,4.13894-28.24491,8.82794c-0.7063,0.11534-2.8252,0.46136-3.5315,0.57671
				c-16.05945,7.89189-28.04523,22.49564-41.97866,34.25583c-0.17835-1.02475-0.17835-1.02475-0.3567-2.04949
				c12.12857-34.65058,40.71597-49.85767,68.45427-44.90258c-14.30437,1.28207-26.83231,8.59726-38.1189,18.87135
				c-0.7063,0.11533-2.1189,0.34602-2.64685,1.48611c8.27592-15.05178,23.45071-23.85308,37.75508-25.13515
				c-19.61229-4.17435-37.96899,3.03882-55.96899,12.30149c-2.64685,1.48611-4.5874,2.85687-7.06301,1.1534
				c2.80387-13.10431,12.15702-17.79331,20.62551-23.39172c4.58739-2.85687,10.2378-3.7796,15.18191-4.58698
				c2.29725,0.67872,5.12245,0.21736,7.24136-0.12866c5.12246,0.21736,9.71696,1.5748,14.31148,2.93225
				c2.29726,0.67872,4.06656,2.49753,6.36382,3.17625c-35.7144-21.56836-72.95576-6.00192-96.38514,30.49411
				c-0.52795,1.14008-1.23425,1.25542-1.94055,1.37077c-2.29014,3.5356-2.98933,7.86526-6.16413,10.49145
				c4.58029-7.07119,8.27592-15.05178,13.91921-20.18883c0.52795-1.14008,1.05589-2.28017,1.58384-3.42025
				c1.94055-1.37077,3.70275-3.76627,5.46494-6.16179c1.7622-2.39551,4.40904-3.88161,7.05589-5.36772
				c0.7063-0.11534,0.34959-2.16483,1.0559-2.28017c3.70274-3.76628,8.46849-5.5984,12.34959-8.33994
				c0.7063-0.11534,2.1189-0.34602,2.8252-0.46136c18-9.26266,38.13312-10.44271,57.93087-1.0293
				c-2.47561-1.70347-4.95122-3.40693-8.13313-4.99506c-30.58483-17.13668-60.77029-6.93797-87.59549,5.87361
				C36.03997,14.04107,56.16598,8.64671,74.35855,8.83742c4.23781-0.69204,9.36026-0.47468,13.95477,0.88276
				c8.66107,3.85497,16.96543,5.66046,24.57061,11.7956c4.24492,3.52227,8.31148,6.0198,12.02844,10.68216
				c-12.02844-10.68216-24.93443-18.05941-39.2459-20.99165c-4.41616-0.3327-8.83231-0.6654-13.24847-0.9981
				c-9.71697-1.5748-17.65752,2.88352-27.37449,1.30871C60.21121-1.49871,80.87939,0.39547,99.61413,7.87473
				c3.18192,1.58812,5.65752,3.29159,8.83942,4.87972c5.12957,4.43167,10.08079,7.83861,15.21036,12.27028
				c1.7693,1.81881,4.42326,4.54702,6.19257,6.36582c-1.7693-1.81881-2.83231-3.75295-4.77997-6.5965
				c-9.38159-12.16827-21.22457-17.61136-27.43137-32.40582c-0.17835-1.02474,0.17124-3.18957,1.40549-4.445
				c11.82165-7.19985,27.38159,2.9056,35.3577,19.51887c2.12601,3.86829,3.01778,8.99201,3.02489,13.20633
				s-0.51372,9.56872-2.98222,12.07957c-4.79419-15.02514-20.19001-32.53448-12.62039-47.47092
				c7.58385-6.50781,17.65752-2.88352,24.38515,6.55654c9.91666,15.2425,3.76675,34.16257-5.75764,42.04115
				c-3.37448-11.0415-4.10211-23.56911-3.2388-35.30266c2.11891-0.34602,0.87755-3.30491,2.1118-4.56034
				c1.23424-1.25543,2.46849-2.51085,3.70274-3.76628c3.35315-1.60145,6.88464-2.17815,10.77286-0.70537
				c1.59096,0.79406,3.1819,1.58813,4.77286,2.38219c2.47562,1.70347,4.42326,4.54702,5.66463,7.50591
				c9.03911,18.54741-4.18091,34.40658-15.65295,39.4416c-1.41261,0.23068-2.82521,0.46136-4.23781,0.69204
				c0.15701-11.61821,0.84198-24.3765,4.88721-34.52192c0.52795-1.14008,1.94055-1.37077,2.46851-2.51085
				c1.23424-1.25543,2.29726,0.67872,3.00356,0.56338c7.25557,8.29997,3.56706,20.49488,0.75607,29.38488
				c-1.40549,4.445-4.05234,5.9311-6.34248,9.4667c7.74797-13.9117,11.07268-32.37041,6.97768-51.7252
				c-0.17836-1.02474-1.59096-0.79406-1.59096-0.79406c-1.02745,19.13744,0.064,37.92885-0.96346,57.06628
				c14.29015-9.7107,28.92989-21.58623,45.35315-23.21432c1.4126-0.23068,3.36026,2.61287,3.53862,3.63761
				c1.08434,14.5771-10.20937,20.63686-18.85622,25.21053c-8.8252,3.54892-18.18546,4.0236-27.37448,1.30871
				c18.01422-0.83403,35.83588-11.12143,44.27592-33.57711c0.52794-1.14008,1.58385-3.42025,0.52083-5.3544
				c-1.58383,3.42025-4.23068,4.90636-6.69919,7.41721c-10.04523,13.23298-19.5625,25.32586-32.2688,31.61632
				c27.37448-1.30872,48.71341-20.60146,68.45427-44.90258c0.7063-0.11534,2.1189-0.34602,2.8252-0.46136
				c0,0,0.17836,1.02474,0.3567,2.04949c-12.47816,36.81541-40.8801,57.26156-70.20935,51.5124
				c27.92377,10.19416,54.92732-1.59268,75.73119-23.95966c5.46494-6.16179,10.22357-12.20823,14.62552-20.30416
				c1.58383-3.42025,2.63974-5.70042,4.22357-9.12068c1.23425-1.25543,1.40549-4.445,3.52438-4.79102
				c-8.09044,20.29084-19.54117,37.96881-34.35925,48.8196c-0.7063,0.11534-1.05589,2.28017-1.76219,2.39551
				c-16.75864,12.22155-37.063,16.59118-57.032,10.36734c29.33636,9.96347,56.68951-3.98819,79.08434-25.5611
				c0.7063-0.11534,1.4126-0.23068,2.1189-0.34602c0.88466,0.9094-0.34959,2.16483-0.17123,3.18958
				c-2.46851,2.51085-3.34604,5.81576-5.10825,8.21127c-6.34248,9.4667-14.28302,13.92502-22.04521,19.40808
				c-8.64685,4.57366-17.65041,7.09783-27.71696,7.68786c-7.24136,0.12866-14.83943-1.79216-22.4375-3.71298
				C170.55055,73.22311,168.07494,71.51964,166.48398,70.72558L166.48398,70.72558z"/>
		</g>
		<g opacity="0.73" clip-path="url(#SVGID_1_)">
			<path d="M31.16022,81.44431C6.46497,69.87123,0.17041,56.11355,6.37793,42.88293
				c-0.10844-0.91544-0.2711-2.28861,1.17644-3.19539c-0.05422-0.45773-0.16266-1.37317-0.2711-2.28862
				c2.78664-2.729,5.57328-5.458,6.74972-8.65339c-30.72368,16.296-23.45315,38.29269,14.23215,54.51234
				C2.23079,73.50701-8.46061,62.01194-14.53829,50.08515c-2.09819-4.5859,2.02755-9.13712-3.1826-13.74035
				c-21.55045,14.97483-8.48976,33.34442,28.87022,46.81772c3.22041,0.93279,6.54925,2.78101,11.32564,3.72246
				c-17.49534-3.2994-28.98364-8.39503-43.47546-12.59254c-6.71191-4.15417-18.03755-7.87663-26.30544-12.03947
				c-3.22041-0.93278-4.99327-2.77234-9.60699-2.34062c-3.00352,0.89811-2.78664,2.729-2.62398,4.10217
				c3.49151,3.2214,3.81683,5.96773,8.8101,8.74007s9.93232,5.08695,14.87136,7.40157
				c4.83061,1.39917,9.71544,3.25607,16.10202,4.6639c1.6102,0.46638,4.72217,0.48372,6.33237,0.95011
				c0.05422,0.45773,1.66442,0.92411,1.66442,0.92411c14.32916,2.82435,28.44144,3.8178,43.89281,2.98903
				C17.7528,86.40125,0.3659,84.0173-12.56994,79.82845c-1.6102-0.46639-3.11196-0.01733-4.72217-0.48373
				c-0.05422-0.45772-1.66442-0.92411-1.66442-0.92411c-11.05453-1.43384-20.76997-4.6899-33.10938-3.8438
				c-13.57008,3.58377-3.52932,9.58617,6.29456,13.75768c3.27463,1.3905,9.60699,2.34061,12.88162,3.73112
				c3.2204,0.93279,7.94257,1.4165,11.10875,1.89156c14.22072,1.9089,28.22456,1.98691,43.62171,0.70041
				c4.61373-0.43172,9.22745-0.86343,12.23097-1.76155c-4.66795-0.026-7.83413-0.50106-12.5563-0.98478
				c-1.55598-0.00867-3.11196-0.01733-4.66795-0.02601c-1.55598-0.00867-4.77639-0.94144-6.33237-0.95011
				c-10.94609-0.51839-34.61115-3.39474-32.45874,1.64887c0.59643,5.03495,14.97981,8.31702,29.36319,11.59908
				c1.55598,0.00867,1.55598,0.00867,3.11196,0.01733c9.60699,2.34062,23.77349,3.79179,34.44849,2.02158
				c1.50176-0.44906,3.00352-0.89811,4.50528-1.34717c5.84438-3.16939,0.74267-6.85717-4.30482-10.08723
				c-15.61404-0.5444-34.2316-0.19068-39.91332,4.35188c-4.23418,3.63578,0.92175,7.78129,9.0812,11.02868
				c3.2204,0.93279,6.44081,1.86556,9.60699,2.34062s7.83413,0.50106,10.89187,0.06067
				c3.00352-0.89811,7.67147-0.87211,9.06479-2.2366c1.3391-1.82223,4.23418-3.63578,5.51906-5.91573
				c-0.21688-1.83089-0.48798-4.11951-0.70486-5.9504c-19.84822,3.09138-39.8591,4.8096-59.59888,8.81643
				c-1.50176,0.44905,0.10844,0.91544,1.66442,0.92411c26.50591,0.60507,50.91364-3.37576,68.93478-8.76442
				c-10.02435,7.26289-16.77406,15.91628-4.90622,24.21597c1.66442,0.92411,3.32885,1.84823,6.49503,2.32328
				c1.6102,0.46639,4.77639,0.94145,6.33237,0.95012c18.34646-2.64233,12.81098-9.99189,12.21455-15.02684
				c-1.82708-2.29728-3.59995-4.13684-6.98301-6.44279c-1.71865-1.38184-4.93905-2.31462-6.65769-3.69645
				c2.31506,6.41678-0.09203,12.34984-4.00089,18.73196c0.05422,0.45773,0.21688,1.83089,0.2711,2.28861
				c-6.47861,10.942-24.06599,19.99245-36.87697,29.98434c1.55598,0.00867,1.55598,0.00867,3.11196,0.01733
				c46.87993-11.17438,60.10826-30.76978,44.09827-47.78352c2.64039,9.16312-4.10933,17.81651-15.58121,25.98619
				c0.05422,0.45772,0.16266,1.37317-1.3391,1.82222c19.41446-6.75317,27.50328-17.22878,24.86288-26.39191
				c12.30161,11.96146,7.54164,24.28531-0.3303,36.59181c-1.3391,1.82222-2.73242,3.18672,0.54221,4.57722
				c18.29224-3.10005,22.2011-9.48216,27.72015-15.39789c2.73242-3.18672,2.29866-6.8485,1.91911-10.05256
				c-1.71864-1.38184-1.93552-3.21273-2.09818-4.5859c-1.93553-3.21272-5.37282-5.97639-8.8101-8.74007
				c-1.71864-1.38184-4.93905-2.31461-6.65769-3.69645c42.84124,20.36515,31.81953,45.46189-14.19287,63.95983
				c-1.50175,0.44905-1.44754,0.90678-1.39332,1.3645c-4.45107,1.80489-10.56655,2.68567-13.40741,4.95694
				c8.90213-3.60977,19.41446-6.75316,25.1504-10.838c1.50176-0.44905,3.00352-0.8981,4.50529-1.34717
				c1.39332-1.3645,4.34262-2.72034,7.29192-4.07616c2.9493-1.35583,4.2884-3.17807,5.6275-5.00029
				c-0.05422-0.45772,3.05774-0.44038,3.00352-0.8981c4.34263-2.72034,5.51907-5.91573,8.3057-8.64473
				c-0.05422-0.45772-0.16266-1.37317-0.21688-1.83089c7.87193-12.30652,3.2418-25.14008-16.7855-36.68716
				c3.27463,1.3905,6.54926,2.78101,9.8781,4.62923c34.736,17.57548,29.34179,37.67194,19.06277,55.91151
				c25.42149-8.54938,26.96106-21.806,20.93761-33.27507c-0.32533-2.74634-2.26085-5.95907-5.69814-8.72274
				c-8.37634-5.07829-13.64072-10.13924-25.02057-14.31941c-6.49503-2.32329-11.43407-4.6379-19.43087-6.51213
				c19.43087,6.51213,34.30224,13.9137,43.11234,22.65377c1.8813,2.755,3.7626,5.51001,5.64391,8.26501
				c5.37282,5.97639,1.35551,11.44305,6.72833,17.41946c14.25853-10.89868,4.96043-23.75826-11.90068-34.83027
				c-3.32884-1.84822-6.60347-3.23872-9.93231-5.08695c-8.10523-2.78967-14.65448-5.57068-22.75971-8.36035
				c-3.22041-0.93279-8.05102-2.33195-11.27142-3.26473c3.2204,0.93278,6.38659,1.40784,11.16297,2.34928
				c20.76997,4.68991,32.47515,11.61642,56.08598,14.03504c1.55598,0.00867,4.61374-0.43172,6.06128-1.33849
				c6.80394-8.19567-12.89804-16.99641-39.72928-20.34782c-6.33237-0.95012-14.11227-0.99345-20.28198-0.5704
				c-6.16971,0.42306-13.84117,1.29517-16.73626,3.10872c23.5024,1.50318,53.9878,9.44915,73.45647,3.15371
				c7.12926-5.44934-1.35551-11.44307-17.29488-14.7338c-25.43791-4.7159-51.18474,1.08714-59.70732,7.90098
				c17.22424,1.01079,35.78758,0.19935,52.68649-1.5362c-0.16266-1.37316,4.55951-0.88944,6.00705-1.79622
				s2.89508-1.81355,4.34262-2.72033c1.28488-2.27995,1.01378-4.56857-2.36929-6.87451
				c-1.66441-0.92411-3.32884-1.84823-4.99326-2.77234c-3.27463-1.3905-8.05103-2.33195-12.77318-2.81567
				c-29.99743-3.82646-49.03234,6.13076-52.77853,13.88604c0.10844,0.91545,0.21688,1.83089,0.32533,2.74634
				c16.95314-1.27782,35.40804-3.00471,48.97811-6.58848c1.50175-0.44906,1.39333-1.3645,2.89508-1.81356
				c1.44754-0.90678-1.71864-1.38184-1.77286-1.83955c-14.43761-3.73979-31.11964-0.17336-43.24218,2.50365
				c-6.06126,1.33849-7.40036,3.16072-11.85143,4.96561c17.9127-6.30411,43.8764-10.27627,73.49427-9.65386
				c1.55598,0.00867,1.66443,0.92411,1.66443,0.92411c-27.68235,2.59032-55.52736,3.80748-83.20971,6.3978
				c9.69902-10.00923,22.45578-20.45885,19.65273-30.99513c-0.10844-0.91545-4.88483-1.8569-6.4408-1.86556
				c-21.67531,0.7941-26.97749,8.54072-30.94056,14.46511c-2.4071,5.93306-0.14625,11.89212,6.72832,17.41946
				c-4.46748-11.4604,4.96044-23.75824,35.15833-31.36618c1.50176-0.44905,4.50529-1.34716,7.67147-0.87211
				c-4.50529,1.34717-5.84438,3.16939-8.73946,4.98294c-16.19405,7.68595-30.88634,14.92283-36.08008,23.5849
				c-6.72832-17.41946,14.7679-32.85202,44.09826-47.78352c-0.05422-0.45773-0.16266-1.37317-0.21688-1.83089
				c0,0-1.55598-0.00867-3.11197-0.01734C48.5521,44.49012,27.59807,64.4999,45.2725,82.43776
				C21.53681,65.8384,30.25986,47.59017,56.42403,32.18361c7.29192-4.07617,14.63807-7.69461,25.09618-11.29572
				c4.50529-1.34717,7.50881-2.24528,12.01409-3.59244c1.44754-0.90678,6.06126-1.3385,5.89861-2.71167
				c-27.14014,7.16755-49.39546,16.19199-60.59624,26.65027c0.05422,0.45772-3.00352,0.89811-2.9493,1.35583
				c-12.5941,11.82278-12.57769,25.08808,2.83588,37.06687c-23.84413-17.5148-12.06333-36.20343,12.43642-52.5341
				c-0.05422-0.45772-0.10844-0.91545-0.16266-1.37317c-1.6102-0.46639-3.05774,0.44039-4.61373,0.43172
				c-2.89508,1.81355-7.45459,2.703-10.40388,4.05883c-11.85143,4.96561-15.86873,10.43228-21.44201,15.89028
				c-3.96308,5.92439-4.81419,11.86612-2.49912,18.28291c2.09819,4.58589,7.30834,9.18913,12.51849,13.79235
				C26.22117,79.12969,29.49579,80.5202,31.16022,81.44431L31.16022,81.44431z"/>
		</g>
	</g>
	
		<ellipse transform="matrix(0.98837 -0.15206 0.15206 0.98837 -10.43478 16.88648)" opacity="0.39" cx="105.18967" cy="76.66787" rx="60.72763" ry="42.32234"/>
	<path opacity="0.22" fill="#FFFFFF" d="M199.43465,47.61112c0,0-45.56857-6.52279-99.27129,1.73922
		S4.95993,77.53051,4.95993,77.53051S19.97909,21.08603,94.06152,9.68866S199.43465,47.61112,199.43465,47.61112z"/>
</g>
</svg>
